<svg xmlns="http://www.w3.org/2000/svg" width="1000" height="1000" xmlns:v="https://vecta.io/nano"><svg width="1000" height="1000"><path d="M466 208.7c-9.7 3.6-16 8.5-23.6 18.5-2.4 3.2-4.4 6.1-4.4 6.3 0 .3-2.4 4.2-5.4 8.7l-5.5 8.1-3.5-7.4c-13.3-27.3-38.5-29.8-56.9-5.6-2 2.6-4.3 6.2-5.2 8-5 10.5-34.9 43.2-55.5 60.8l-8 6.9c-.3.3-3.4 3-7 6-15.4 13.1-39.9 37.5-48 48l-4.7 5.8c-.7.7-2 2.6-3 4.2-.9 1.7-2.1 3-2.5 3s-.8.6-.8 1.2c0 .7-1.4 2.9-3 4.8s-3 4.1-3 4.7c0 .7-.4 1.3-1 1.3-.5 0-1 .5-1 1.1s-1.3 2.9-2.8 5.2c-2.5 3.8-14.3 27.3-16.2 32.2-.4 1.1-1.2 3.1-1.8 4.5s-1.6 4.3-2.3 6.5c-.6 2.2-1.6 4.9-2 6-1.5 3.5-5.4 18.7-6.8 26.5-7.4 40.3-7.5 75-.4 108.5l2 10a28.27 28.27 0 0 0 1.2 5c.5 1.1 1.9 5.3 3.2 9.3 1.2 4 2.6 7.5 3.1 7.8.4.3.8 1.4.8 2.5 0 1 .4 2.7.9 3.7.5.9 3.3 6.6 6.2 12.7 2.9 6 6.6 12.9 8.1 15.2s2.8 4.4 2.8 4.8c0 .6 9.9 15.7 10.9 16.5.4.3 2.6 3 5.1 6 3.9 4.8 12.3 14.1 17.1 18.9 7.3 7.4 27.3 23.4 35.8 28.6l5.6 3.6c8.8 5.8 28.4 16.3 37.8 20.3 2 .9 5.4 2.3 7.5 3.2 2 .9 4.7 2 6 2.5l4.7 1.9c1.4.5 3.5 1.4 4.8 1.9 2.5 1 12.9 4.2 19.7 6.1l7 2c1.4.5 5 1.4 8 2l9 2c9.4 2.3 13.1 3 30.8 6 7.3 1.2 26 2.7 47.9 3.9 34.2 1.9 90.4-2.8 130.3-10.9 14.9-3 27.2-6 29.2-7.1 1-.5 2.7-.9 3.7-.9 1.1 0 3-.4 4.3-.9s4.3-1.4 6.8-2.1c7.4-2.1 16.4-5 18.2-6 1-.6 2.3-1 2.8-1 .6 0 3-.9 5.2-2 2.3-1.1 4.5-2 5-2 1.7 0 31.7-14.4 40.6-19.6 10.1-5.8 28.5-18.8 38.7-27.3 4.1-3.5 21.5-20.9 24.5-24.6 7.7-9.4 14.6-19.2 19.4-27.6 3.2-5.4 11.6-22.7 11.6-23.8 0-.4.9-2.6 2-4.9 1.1-2.2 2-4.7 2-5.5 0-.7.4-1.7.8-2.3.5-.5 1.4-2.9 2.1-5.4.8-2.5 1.7-5.6 2.1-7 3.2-10.3 4.3-16.1 8-41.7 2-13.9 1-44.9-2-62.6-2.2-12.6-3.3-18.4-4.7-23.7l-2.3-8.5c-.9-3.6-5.7-18.2-6.9-21-5.3-12.6-18.9-39.7-20.3-40.3-.5-.2-.8-.8-.8-1.4 0-.9-5.7-9.8-7-10.8-.3-.3-2.1-2.8-4-5.5-9-13.4-30.2-36.4-40.5-44L742 335c-.3-.3-2.1-1.7-4-3s-3.7-2.7-4-3c-.3-.4-8.6-6.1-18.5-12.8-28.9-19.5-30.6-20.9-45-36.1-14.6-15.4-32.1-32.7-36.1-35.7-2.1-1.6-4.1-3.1-4.4-3.5-2.9-3.3-22.7-13.6-31-16-9-2.8-31.3-1.3-35.5 2.3-.5.4-1.5.8-2.3.8-2.3 0-12.7 7.7-17 12.5-2.2 2.5-4.7 6.1-5.6 8-2 4.2-3.6 5.3-4.8 3.2-.4-.9-1.4-2.2-2.1-2.9s-3.3-4.2-5.7-7.8c-6.1-9.2-21.3-24-28-27.2-11-5.3-13-5.8-21.9-5.7-4.7 0-9.3.3-10.1.6z" fill="#fff4e6"/></svg><svg width="1000" height="1000"><path d="M466 208.7c-11.5 4.1-18.4 10.6-30.3 28.7l-8.6 12.9-3.5-7.4c-5.8-11.9-14.1-19.2-24.9-21.8-11.8-2.8-26.5 6.2-35.7 21.8-2.1 3.6-6.6 10.4-10.1 15.1-6.5 8.7-34.9 38.1-44.2 45.8-2.9 2.3-6.5 5.5-8.2 7-1.6 1.5-5.9 5.2-9.5 8.2-15.6 13.3-40 37.7-48 48-1.9 2.5-3.8 4.7-4.1 5s-2.5 3.4-4.9 7-4.8 6.9-5.2 7.5c-5.3 6.6-18.9 31.8-23.9 44.5-7.2 18.3-11.7 35.5-15.5 58.5-3.8 23.7-3.6 58.8.5 84.5 1.6 10.2 7.7 32.8 10.6 39.5.7 1.6 2.3 5.7 3.6 9 2.6 6.7 11.1 23.6 14 27.7 1.1 1.4 1.9 2.9 1.9 3.3 0 3.1 20.4 28.6 33.1 41.4 7.5 7.6 22.6 19.6 34.9 27.8 12 8.1 16.7 10.8 32.5 19.1 4.5 2.4 17.6 8.2 25.3 11.3l4.5 1.8c7.5 3.2 34.9 11.3 44.2 13.2 2.2.4 6 1.3 8.5 1.8 18.9 4.5 36.4 6.7 63 8.1 10.7.5 21.1 1.2 23 1.5 3.9.5 36.3-1 54.5-2.5 12.8-1.1 23.2-2.4 38.5-4.6 17.5-2.5 41.4-7.3 52-10.4 3.6-1.1 11.2-3.3 17-4.9 12.5-3.6 28.1-9 29.4-10.2.6-.5 1.6-.9 2.3-.9 2.2 0 30.9-13.6 41.1-19.6 10.2-5.8 28.5-18.8 38.7-27.3 4.1-3.5 21.5-20.9 24.5-24.6 7.7-9.4 14.6-19.2 19.4-27.6 3.8-6.6 11.6-22.8 11.6-24.2 0-.7.4-1.7.9-2.3 2.1-2.2 6.8-16.8 10.5-32.4 2.3-9.9 3-13.7 5.6-31.7 2-13.9 1-44.9-2-62.6-2.8-16.1-3.3-18.8-7-32.2-2-7.4-6.8-21-10-28-3.8-8.5-11.2-23.2-14.1-28l-3.6-6.5c-.8-1.8-6.4-10.3-7.3-11-.3-.3-2.1-2.8-4-5.5-9-13.4-30-36.1-40.6-44.1L742 335c-.3-.3-2.1-1.7-4-3s-3.7-2.7-4-3c-.3-.4-8.6-6.1-18.5-12.8-29.1-19.6-30.4-20.7-46-37.1-15.8-16.5-31-31.6-35.1-34.7-2.1-1.6-4.7-3.6-5.7-4.5-3.4-3.1-20.2-11.8-27.2-14-11.3-3.7-33.1-3-38 1.3-.5.4-1.5.8-2.3.8-2.3 0-12.8 7.7-17 12.6-2.3 2.5-4.9 6.4-5.9 8.5-1.5 3.4-4.3 5.4-4.3 3.1 0-.5-.8-1.7-1.8-2.8-1-1-3.8-4.8-6.2-8.4-5.5-8.2-20-22.8-26.2-26.2-9.2-5.1-15.3-6.8-24.1-6.7-4.5 0-8.9.3-9.7.6zm19.6 13.3c12.2 4.2 19 10.6 35.6 33 17.1 23.2 31.9 34 48.7 35.6 7.5.7 10.5-.9 10.9-5.8.4-4.8-2.4-6.8-9.6-6.8-6.8 0-15.7-4.1-22.7-10.4-4.4-4-4.8-4.7-3.4-5.8.9-.7 2.2-3.1 2.9-5.3 1.8-5.4 11-14.4 18.5-18 5.5-2.7 6.9-2.9 17-2.9s11.7.2 19 3.2c15 5.9 21.9 11.5 49 38.8 13.8 13.8 27.9 27.5 31.4 30.4 3.5 2.8 15.4 11.2 26.5 18.5 29.6 19.7 44.6 32.9 61.1 54 29.1 37.3 45.9 77.5 51.6 123.5 1.9 15.2 1.7 45.9-.4 60-2.8 18.9-8.7 40.8-13.5 50.5-3.8 7.7-25.6 31.2-38.3 41.5-12.2 9.8-32.3 23.1-44.9 29.8-13 6.9-40.7 18.5-57 23.9-25.5 8.4-64.1 17.2-91.2 20.7-31.6 4.1-92 4.7-117.8 1.2-72.7-10-126.2-35.4-159.3-75.5-34-41.3-54.6-97.9-54.7-150.2 0-57.8 23.8-124.7 64.6-181 3.5-4.9 6.4-9.3 6.4-9.7 0-.5 7.2-7.9 16-16.5 18.7-18.4 28-29.3 39-45.6 11.3-16.9 17.7-21.6 26.9-19.6 3.8.8 10.5 6.7 13.6 11.9 3.2 5.4 6.7 15.6 6.2 17.7-.3 1-5.5 9.3-11.6 18.6-13.2 20.1-13.9 23.2-5.4 24.9 3.9.8 2.7 2.2 29-38.1 11.9-18.2 23.5-35.3 25.9-38.2 8.3-9.7 18-12.4 30-8.3zM307 719.6c0 .2-.9 0-2-.6s-2-1.3-2-1.6c0-.2.9 0 2 .6s2 1.3 2 1.6zm18 9.9c0 .3-2.2-.6-5-2-2.7-1.4-5-2.8-5-3 0-.3 2.3.6 5 2 2.8 1.4 5 2.8 5 3zm3.5 1.5c.3.6-.1.7-.9.4-1.8-.7-2.1-1.4-.7-1.4.6 0 1.3.4 1.6 1zm6 2.6c2 .8 3.5 1.7 3.2 2s-2.2-.4-4.4-1.5c-4.6-2.4-4-2.7 1.2-.5zm7 3.4c.3.6-.1.7-.9.4-1.8-.7-2.1-1.4-.7-1.4.6 0 1.3.4 1.6 1zm4.5 2c.8.5 1.1 1 .5 1-.5 0-1.7-.5-2.5-1s-1-1-.5-1c.6 0 1.7.5 2.5 1zm5 2c.8.5 1.1 1 .5 1-.5 0-1.7-.5-2.5-1s-1-1-.5-1c.6 0 1.7.5 2.5 1zm5 2c.8.5 1.1 1 .5 1-.5 0-1.7-.5-2.5-1s-1-1-.5-1c.6 0 1.7.5 2.5 1zm243-330.6c-11.2 2.6-20.4 8.7-27.6 18.3-5.6 7.4-6.4 10.7-3.3 13.9 3.1 3.3 6.2 3.1 9.3-.9 1.4-1.7 4-5.1 5.8-7.3 3.9-4.9 10.7-9.7 16.2-11.4 5.5-1.8 16.4-.8 22.1 2 6.7 3.3 10.2 6.5 15.1 14.2 4.7 7.3 6.8 8.3 11.2 5.2 4.8-3.3 2-11-7.6-20.8-6-6.1-14.3-10.9-22.7-13.1-7-1.8-11-1.8-18.5-.1zm-198.5 18.3c-11.3 4.1-20.8 11.8-26.4 21.7-4.6 7.9-4.9 10.8-1.6 13.5 5 3.9 7 2.8 12-6.7 5.9-10.9 17-17.7 29-17.6 11.1.2 19 4.4 27 14.5 4.9 6.3 7.2 7.2 11.3 4.3 4.6-3.2 1.7-10.1-8.2-19.2-2.6-2.4-8.2-6-12.4-8-6.7-3.2-8.7-3.7-16.7-3.9-6.7-.3-10.3.1-14 1.4zm152.8 23.4c-1.3.5-3.1 2.8-4.3 5.8-3 6.8-7.1 8.8-14.6 7.2-2.9-.7-6.9-2.5-9-4.2-2-1.6-4.3-2.9-5.1-2.9s-3.8 2.4-6.7 5.4c-5.6 5.9-8.5 7.1-14.6 6.3-4.4-.6-8.1-3-10.5-6.9-4.1-7-14.1-2.4-11.3 5.2 1.4 3.8 6.7 8.9 12.3 11.8 8.9 4.7 22.9 2.9 30.1-3.9 1.9-1.8 2.3-1.8 5.8-.4 10 4.2 23.1 2.5 29.5-3.7 4.9-4.8 7.9-12.4 6.5-16.3-1-2.4-5.6-4.4-8.1-3.4zm114.3 78.1L644 560.5c-21.8 26.3-26.3 33.7-26.3 43.3 0 16.8 18.8 29.5 37.4 25.2 6.5-1.5 21-8.1 25.6-11.6 4.1-3.1 4.4-7 .8-10.4-2.4-2.3-2.4-2.3-14 3.6-10.2 5.1-12.5 5.9-18.5 6.2-5.6.3-7.8 0-11.4-1.7-6.1-3-7.9-6.1-7.4-12.2.7-6.6 3.3-10.4 29.2-41.4 13.5-16.3 21.6-26.8 21.6-28.2 0-2.4-4.3-6.3-7.1-6.3-1 0-3.8 2.4-6.3 5.2zm-293.2 14c-2.5 1.1-4.3 4.6-3.6 6.7.2.7 8.2 10.6 17.6 22 30.7 36.8 33.6 41 33.6 48.3 0 4.7-6.1 10.2-12.8 11.7-7 1.5-12 .2-24.4-6-5.4-2.7-10.6-4.9-11.6-4.9-2.6 0-5.4 3.4-5.4 6.6 0 3.5 2.4 5.4 15 11.6 8.9 4.3 11.3 5.1 18.1 5.5 25.6 1.8 40.3-17.5 29.7-39.1-2.2-4.6-39.3-50.4-48.4-59.9-3.8-3.9-4.5-4.2-7.8-2.5z" fill="#eedac4"/></svg><svg width="1000" height="1000"><path d="M466 208.7c-11.5 4.1-18.8 11-30.5 29-7.5 11.5-9.5 13.9-9.5 11.2 0-.5-1.4-3.8-3-7.3-7-14.4-21.8-23.4-33.7-20.4-10.4 2.6-17.6 8.8-27.1 23.3-3.5 5.5-8.5 12.7-11.1 16-7.6 10-30.6 32.9-49.6 49.4-30.4 26.4-50.4 46.2-61.9 61.4-23.7 31.1-39.9 65.9-47 100.8-9.5 46.8-7.8 92.4 5.1 133.3 1.4 4.5 2.8 8.5 3.2 9.1.4.5 1.3 2.8 2 5s3.6 8.5 6.3 14c18.4 37.4 43 65.3 78.5 89 13.1 8.8 14.8 9.8 31.8 18.5 20.3 10.4 47.2 20.4 68.9 25.5l13.1 3.1c20.9 4.9 40 7.3 71 8.8 32.4 1.5 65.6-.1 102-4.9 13.7-1.8 44.6-7.7 55-10.4l15-4.1c7.6-2 25.7-8.1 39-13.1 10.7-4 40.9-19.6 51.9-26.9 41.2-27.1 65.3-55.5 83.9-99 4.4-10.1 10.1-29.4 12.2-41.5 2.9-16 3.6-21.7 4.1-38.7 1.8-48.9-10.5-95.3-37.1-140.3-4.5-7.6-17.9-26-25.8-35.3-13.3-15.7-30.4-30-57.7-48.2-15.6-10.4-25.2-17.3-31-22.5-5.1-4.5-7.8-7.2-30.8-30.7-20.9-21.4-34.6-31.2-51.7-36.9-5.5-1.8-9.2-2.3-17.5-2.3-11.3 0-15 .8-24.8 5.6-8.4 4.1-16.1 11.3-20.2 18.9-3.8 7.1-2.8 7.6-12.1-5.9-10.7-15.5-24.4-27.4-37.2-32.1-4.3-1.5-7.9-2.1-14-2-4.5 0-8.9.3-9.7.6zm24.3 15c9.1 4.3 15.8 10.9 29.2 28.8 18.7 25 31.1 34.8 47.5 37.4 7.6 1.2 12.7 0 13.6-3.4 1.4-5.8-1.9-8.5-10.5-8.5-6 0-15.1-4.4-21.8-10.5-4.5-4-4.7-4.4-3.2-6.1.9-1.1 2.5-3.9 3.6-6.4 2.7-6.1 9.4-12.4 17.3-16.3 6.1-3 7-3.2 18-3.2 10.8 0 11.9.2 19.3 3.4 15.1 6.5 21.5 11.6 48.2 38.5 28.3 28.6 32.3 32 56 47.7 22.8 15 31.2 21.5 42.9 32.8 30.5 29.7 55.2 72 65.5 112.4 9.8 38.1 10.5 78.6 2 114.7-8.3 35.5-27.3 70-51.8 93.9-46.7 45.5-111.9 72.2-204.3 83.5-27.7 3.4-33.1 3.7-65.8 3.6-25.6 0-28.6-.2-29.7-1.7-.7-.9-1.3-1.1-1.3-.5 0 3.6-41.9-1.7-74.3-9.3-43.8-10.2-90.6-34.1-123.8-63-18.5-16.1-37.5-42.1-48.4-66-9.4-20.6-19-57.1-17.3-66 .3-1.4.1-2.5-.6-2.5-.6 0-.2-.6.8-1.2 1.5-.8 2.1-.8 2.4 0 .2.7 1 1.2 1.8 1.2.9 0 1.3-.4.9-.9-.7-1.2 1.4-2.6 4-2.6 1.7 0 2-.7 1.9-4.3-.1-2.8.2-4.2 1.1-4.2.7 0 1.3 1.2 1.3 2.6 0 1.5.5 3 1.1 3.4.7.4 1.3 3.2 1.4 6.4.1 3.1.5 5.6.9 5.6.5 0 .7.3.7.7-.5 3.1 2.8 5.4 4.3 3.1.6-1 .8-1 .9.2.1.8.3 2.5.4 3.7.2 1.8-.3 2.3-1.9 2.3-1.5 0-1.7-.3-.8-.9.8-.4 1.4-1.2 1.4-1.6 0-.8-2.2-2.5-3.4-2.5s-.7 6.4.9 9.8c2.4 5.4 2.6 8.2.6 8.3-1.4 0-1.2.2.5 1 1.3.5 2 1.3 1.7 1.9-.3.5-.2 1 .4 1 .5 0 .8.8.6 1.7-.1 1 .2 2.6.7 3.5.6 1.3.5 1.8-.7 1.8-.8 0-1.5.5-1.5 1.1s.9.9 2 .6c1.5-.4 2 0 2 1.3 0 1 .6 2.1 1.3 2.4.6.4.3.5-.9.2-1.3-.2-2.1.2-2.1 1s.5 1.4 1.1 1.4.4.5-.4 1c-.9.6-1 1-.3 1 1.1 0 5.3 8.1 5.3 10.2 0 1.8 6.2 13.8 7.2 13.8.5 0 .7.4.4.9s.1 1.4.9 2.1 1.5 1.7 1.5 2.1c0 .5 2.2 4.3 5 8.4 2.7 4.1 4.7 7.5 4.5 7.5s.7 1.2 2 2.6c1.4 1.5 2.2 3 1.9 3.5s.1.9.8.9 2.4 1.4 3.8 3c1.4 1.7 5.5 6.3 9.2 10.2 6.1 6.7 7.3 8.8 4.7 8.8-.6 0-.7-.5-.4-1 .3-.6-.1-1-1-1s-1.3-.4-1-1-.1-1-1-1-1.3-.5-1-1c.3-.6-.1-1-1-1s-1.3-.4-1-1 .1-1-.5-1c-1.5 0-4.1-2.6-3.3-3.4.4-.3-.1-.6-1.1-.6-.9 0-1.4-.5-1.1-1 .3-.6-.1-1-1-1s-1.3-.4-1-1c.4-.6-.1-.7-1.1-.3-1.3.5-1.6.3-1.1-1 .4-1.1.1-1.7-.9-1.7-.9 0-1.2-.5-.8-1.1.4-.7.1-1-.6-.7-2.3.7-1.9 4.8.5 5.4 1.1.3 2.5 1.5 3.1 2.7.5 1.2 1.6 2.1 2.4 1.9s1.2 0 .7.4c-1 1.1 2.3 4.5 3.7 3.7.6-.3.8-.2.3.2-.4.5.1 1.7 1 2.7 1.3 1.4 1.4 2.1.5 3-.7.7-1.2 1.6-1.2 2.2 0 .5.6.1 1.4-.9 1.3-1.8 1.6-1.7 5.7 2.8 2.3 2.6 4.8 4.6 5.5 4.3.9-.3 1.1 0 .7 1.1-.5 1.2-.2 1.5 1 1 1.1-.4 1.4-.2 1 .9-.4 1 0 1.2 1.3.7 1.1-.4 1.5-.3 1.1.4-.8 1.2 2 2.6 3.4 1.8.5-.4.6.2.2 1.1-.5 1.3-.3 1.6 1 1.1 1.2-.4 1.4-.2 1 1-.4 1-.2 1.4.4 1 .5-.4 2 .4 3.2 1.7 1.3 1.4 3.1 2.2 4.6 2.1 1.8-.2 2.2.1 1.8 1.3-.5 1.1-.3 1.3.6.7.8-.5 2.1.1 3.5 1.6 1.1 1.3 2.6 2.4 3.1 2.5 2.3.1 6.5 2.5 7.6 4.3.7 1 1.9 1.7 2.6 1.4.8-.3 1.1 0 .8.9-.3.8.1 2 .8 2.7 1.2.9 1.6.8 2-.3.5-1.3 1.2-1.2 4.7.6 2.2 1.2 4 2.6 4 3 0 .5.4.7.8.4.5-.3 3.9 1 7.7 2.9s7.5 3.5 8.2 3.5 1.3.8 1.3 1.7c0 1.5-.2 1.6-1 .3-.5-.8-1-1-1-.4 0 1.9 1.2 2.3 3 1.1 1.4-.8 2.5-.8 4.2 0 6 2.9 9.9 4.4 12.7 4.9 1.7.4 3.4 1.1 3.7 1.5.3.5 1.6.9 3 .9 2.6 0 3 .9 1.4 2.8-.7.9-.7.9.2.2 1.5-1.3 5.5-1.3 6.3 0s8.5 1.3 8.5-.1c0-.6-.9-.8-2-.4-1.4.5-2 .2-2-.9s-1-1.6-2.7-1.7l-2.8-.1 2.8-1c3.1-1.1 7-.3 4.9 1.1-.8.4.5.7 3 .7 2.4-.1 4.2.3 4.1.9-.1.5 1.7 1 4 1.1 2.2 0 4.2.4 4.4 1 .2.5 2.1.8 4.3.6s4.6 0 5.3.6c2.3 1.9 28.7 5.5 28.7 3.9 0-.5 1.3-.7 3-.5 1.6.2 3.2 0 3.4-.6s.5-.4.5.5c.1 1.1 1.2 1.5 4.4 1.6 2.3 0 3.2-.1 1.9-.4-1.9-.4-2.1-.7-1.1-1.9.9-1.1.7-1.4-1.5-1.4-1.4 0-2.6-.5-2.6-1 0-.6 2-1 4.5-1s4.5.4 4.5 1c0 .5 1.5 1 3.3.9 2.7 0 2.9-.2 1.2-.9-1.1-.5-1.4-.9-.7-.9.6-.1 1.2-.6 1.2-1.2 0-.5-.4-.8-.9-.4-.5.3-1.7-.2-2.5-1.1-1.2-1.1-1.6-1.2-1.6-.2 0 .7-.7.2-1.6-1-1.3-2-1.4-2.4 0-3.7 2-2.1 2.5-1.9 1.9.7-.4 2.2-.3 2.2 1.1-.2.8-1.4 1.5-2 1.6-1.4 0 .5.7 1.9 1.6 3 1.5 1.8 1.5 1.8.9-1.1-.4-2.2-.3-2.6.5-1.5.7 1.1 1 1.1 1 .2 0-.8.5-1 1.2-.6.6.4 9.7.9 20.2 1.1 10.5.3 22.4.8 26.4 1.2 3.9.4 7.2.3 7.2-.1 0-.5 1-.4 2.1.3 1.2.6 2.4.7 2.8.3.9-1.3 5.1-1.6 5.1-.4 0 .6.7 1 1.6 1 .8 0 1.3.4 1 .9-.7 1.1 1.4 2 3.2 1.3.6-.2 1.2-1.2 1.2-2.1 0-1.4 1-1.8 5.3-1.8 2.8-.1 4.2.1 3 .4-1.3.2-2.3.9-2.3 1.5s.9.8 2 .5c1-.3 2.4.1 3.1.9 1.2 1.5 3.4 2 2.5.6-.2-.4.4-1.3 1.5-2 1.5-1 1.9-1 1.9.2 0 1.7 2.5 1.5 4.2-.2 1-1 1.6-.8 3 1 1.4 1.9 2 2 2.7.9 1.2-1.8 3.1-.5 3.1 2.1 0 3 .8 1.8 1.5-2.2.8-4.7 1.2-4.8 2.3-.9.5 2.1.5 3.6-.1 4-1.4 1 .4 1.6 4.6 1.7 2 0 3.8.1 4 .2 1.5 1 5.7.7 6.7-.5 1.5-1.8 4-2 4-.3 0 .9.4.8 1-.2.6-.9 1-1 1-.3 0 .6.8 1 1.8.8 5-1 7.1-1.8 6.6-2.6-.3-.5-.1-.9.5-.9.5 0 1.1.5 1.3 1 .2.7 2.4.5 6.3-.6 7.2-1.9 14.5-2.4 14.6-1 0 .6.4.1.9-1.2.5-1.2 1.7-2.2 2.7-2.3 1.6 0 1.6-.2-.2-1-1.4-.6-.2-.8 4.2-.6 3.9.2 6.1-.1 6-.8-.1-.5 1.3-1.1 3.1-1.3 2-.2 3-.7 2.6-1.4-.5-.7.6-.9 3.1-.6 3.4.4 3.5.3 1.9-1-1.4-1.1-1.5-1.3-.3-.9.9.3 3.1.2 5-.3 3.4-.8 3.4-.8-1.2-.9-2.5-.1-5 .4-5.7 1.1-.9.9-1.2.8-1.2-.5 0-1.2.8-1.7 2.6-1.7 1.4 0 2.3-.4 2-.8-.2-.4-.1-1.4.4-2.2.8-1.2 1-1.2 1.5.1.8 2.2 5.2 1.3 5.8-1.2.3-1.3 1.1-1.7 2.1-1.3.9.3 1.3 1.1.9 1.7-.3.6-.1.7.5.3.7-.4 1.2-1.4 1.2-2.2s.7-1.4 1.6-1.4 1.3.5.9 1.2c-.3.7.2.3 1.1-.9 2-2.8 4.8-2.9 7.4-.3 2 2 2 2-1 3.5-2.1 1.1-4.3 1.4-6.8 1-3.7-.7-3.7-.7-.8.9 1.6.9 3.8 1.4 5 1.1 1.7-.5 1.7-.3-.4.9-2.8 1.7-5.4 2.1-4.5.7.7-1.2-5.5-2.5-8.2-1.8-1.1.3-.7.5 1.2.6 4.5.2 6 1.4 3.9 3.2-1.2.9-1.5 1-1 .1.4-.7.1-1.2-.9-1.2-.9 0-1.3.4-1 1 .4.6-.5 1-2 1-1.7 0-2.4.4-1.9 1.2s.2.9-.9.5c-1-.3-1.7-.2-1.7.3s-.9.7-1.9.5c-1.4-.2-2 .3-2.4 2-.3 1.6 0 2.2.7 1.8 1.2-.8 3.7-1.3 7.9-1.5 1.5-.1 2.7-.5 2.7-1 0-.4 1.4-.8 3-.8 1.8 0 3.3-.6 3.6-1.5.4-.8.9-1.3 1.3-1.1.3.2 6.2-2.3 13.1-5.5l16.2-7.7c4.3-1.9 5.8-4.2 2.5-3.6-1.2.3-.3-.5 2-1.8 2.4-1.2 4.5-3 4.9-4 .3-1 1.4-1.8 2.4-1.8s2-.7 2.4-1.5c.3-.8 1.2-1.2 2.1-.9.8.3 1.5.1 1.5-.5s.9-1.1 1.9-1.1c1.5 0 1.8-.5 1.3-2.2-.3-1.4-.2-1.9.7-1.4.6.4.9 1.2.6 1.7-.4.5-.3.9.2.9 1.4 0 3.4-1.6 3.2-2.6-.3-2 .1-3.5 1-3 .4.3.6 1.8.4 3.3-.4 2.4-.1 2.2 1.6-1.2 1.2-2.6 2-3.3 2-2.1.1 1.5.4 1.6 1.6.6.8-.7 1.5-2.1 1.5-3.2 0-1 .4-1.7.9-1.3.5.3 1.2.1 1.6-.5 1.1-1.7 7.3-4.2 9.3-3.6 1.2.4 2.5-.1 3.8-1.6 1.9-2.3 1.9-2.3-.2-.5-2.2 1.8-3.4 2.2-3.4.9 0-.4 1.4-1.3 3-2 1.7-.8 3-2 3-2.8 0-.9.5-1.2 1.1-.9.6.4.8 1.4.4 2.2-.4 1.3-.3 1.4 1 .3.8-.7 1.3-1.6 1-2-.9-1.4.8-1.8 3.3-.9 1.4.5 2 1.3 1.6 2-.5.8-.3.9.6.4 1-.6.8-1.2-1-2.7-1.2-1-2.1-2-1.9-2.1s1.8-1.2 3.5-2.4c1.8-1.2 3.5-1.9 3.8-1.6 1.7 1.8 5 .6 5.1-1.7 0-.3 1-1.8 2.2-3.3 1.4-1.8 2.3-2.3 2.6-1.5s.6.6.6-.5c.1-1 .5-1.6.9-1.3.5.3 1.5-.6 2.2-1.9.7-1.4 1.7-2.5 2.2-2.5 1.5 0 7.1-6.6 12.7-15 3-4.7 5.9-8.7 6.3-8.8.5-.2.8-1 .8-1.8s.4-1.4.9-1.4 1.1-.9 1.4-2.1 1-1.8 1.6-1.5c.5.4 1.3.1 1.7-.5.4-.8.3-.9-.4-.5-1.9 1.2-1.4-.6 1.1-3.4 1.2-1.4-.8.6-4.5 4.5-3.7 3.8-6.5 7.6-6.3 8.2.2.7-.1 1.2-.8 1-.7-.1-1.1.4-1 1 .2.7-.1 1.2-.5 1-.5-.1-4.9 3.3-9.8 7.6-16.6 14.7-40.6 30.6-59.9 39.8-51.9 24.7-105.5 38.6-169.2 44-19 1.6-71.4.7-88.3-1.5-70.5-9.3-126.4-35.5-159.2-74.5-28.5-34.1-46.8-74.9-54.5-121.6-2-12.5-2.3-49.2-.5-61 8-50.3 28.1-99.6 58.8-144.3 6.7-9.7 7.5-11.7 2.1-5.5-6.1 7.3-17 18.3-18 18.3-.6 0-.2-1 .9-2.3 1.9-2.2 1.9-2.2-.3-.4-1.2 1.1-1.9 2.5-1.7 3.2.3.7 0 1.6-.5 2-.6.3-.8 1.1-.5 1.7.4.6.3.8-.3.5-1.5-.9-5.7 3.9-5 5.7.4.9.1 1.8-.5 2.2s-.8.3-.5-.2c.3-.6.1-1.6-.4-2.4-1.1-1.8-.5 3.3.7 5.1.5.8.3.9-.6.4-.7-.4-1.6-.2-2 .5s-1.3.9-2 .5c-.9-.6-.9-.9.1-1.6 1.1-.7 1.1-.9.1-.9-.7 0-2 .9-3 2.1-.9 1.1-3.5 3.9-5.7 6.2-6.5 6.8-6.9 7.5-5.5 9.2 1.5 1.8-.1 2-1.8.3-.7-.7-1.2-.8-1.2-.2 0 .5.5 1.5 1.2 2.2 1.6 1.6-.4 1.6-2.1-.1-1.1-1-1.3-.9-.8.5.4 1.3.1 1.8-1.1 1.9-1.6.1-1.6.2.1.6 1.8.5 2.4 2.3.6 2.3-.5 0-.7.5-.4 1 .4.7-.3.9-2.2.4-2.7-.6-2.7-.6-.8 1 2 1.7 2 1.7-.5 1.1-1.9-.5-2.2-.4-1 .4 2.1 1.5 5 .4 8.3-3.1 1.6-1.6 3.1-2.7 3.4-2.4 1 1 1.1 5.6.1 5-.5-.3-.7-1.3-.4-2.1.4-1-.4-.7-2.4.7-1.7 1.2-2.8 2.5-2.5 3 .3.4-.2 1-1 1.4-.8.3-1.5 1.2-1.5 2.1 0 .8-.4 1.5-.9 1.5-.4 0-.7 1.4-.5 3 .3 2.3-.1 3.3-1.6 3.8-1 .4-1.9 1-1.9 1.5-.2 2.8-1.7 6.5-3.4 7.9-1.3 1.1-1.5 1.8-.7 1.8.7 0 .3.8-1 2-1.5 1.3-2.1 2.6-1.7 4.1s.2 1.9-.9 1.5c-.8-.3-1.4 0-1.4.7s-.5.4-1.1-.7c-.9-1.4-1.3-1.5-1.9-.6-1 1.7-3.1.3-2.3-1.5.3-.8.1-1.5-.4-1.5-1 0-3.8 4.2-3.5 5.2.1.5-.3.8-.8.8-1.4 0-.9-3.1.8-4.8.7-.8 1-1.8.7-2.3-.4-.5-.2-.9.4-.9.5 0 .9-.9.8-2s-.5-2-1-2-.6.7-.3 1.5c.3.9-.1 1.8-1 2.2-.8.3-1.3 1.1-1 1.9.3.7-.1 1.8-.9 2.4-1.5 1.2-1.4 2.5.3 5.7.9 1.7.9 2.2-.3 2.7-.8.3-1.5 1.5-1.5 2.6 0 1.2-.4 1.8-1 1.5-1.2-.8-.8-3.8.8-5.7 1.2-1.5.7-2.8-1.1-2.8-.5 0-.6.7-.3 1.5.3.9-.1 1.8-.8 2.1-1.5.6-1.8 4.4-.4 4.4 1.2 0 1 5-.2 5.1-.5.1-1.6.2-2.2.3-.7.1-1.7-.3-2.1-.9-.5-.6-.7-.3-.3.7.5 1.6-.5 2.3-2.7 1.9-.5-.1-.6.3-.3.8.8 1.2 4.6.2 4.6-1.3 0-.6.7-.3 1.5.8.8 1 1.9 1.5 2.6 1 .8-.4 1-.3.5.5-.4.6-1.5 1-2.4.9-1.2-.2-1.8.5-2 2.5-.2 1.5-.8 2.5-1.3 2.2-.5-.4-.9.7-.9 2.4 0 1.6-.4 3.3-1 3.6s-1 1.7-1 3.1c0 1.3-.5 2.4-1.1 2.4-.7 0-1 1.2-.7 3 .3 2 0 3-.9 3-.7 0-1.2.6-1 1.2.1.7-.3 1.2-1 1.1-.7-.2-1 .3-.7 1 .2.6 2.3 1.3 4.7 1.4 2.3.2 3.7-.1 3.1-.5s-1.3-1.5-1.7-2.5c-.6-1.5-.2-1.8 2.1-1.5 1.7.2 2.6.8 2.4 1.7s.3 1.1 1.4.7c.9-.3 2.3-.1 3 .5 1 .8 1.4.8 1.4 0 0-.6 1.2-1.1 2.8-1.2 2.4 0 2.5-.1.7-.9-2.2-1-1.3-1.3 2.7-1 2.3.1 2.6-.2 2.3-2.1-.3-1.2.2-2.7.9-3.3 1.8-1.5 2.8-8.3 1.3-9-.7-.2-.4-.5.6-.5 1.3-.1 1.7-1 1.7-3.5 0-3.3 2.9-7.4 3.1-4.5.1.8.1 1.7 0 2.1 0 .4.5.5 1.2.2 1.9-.7 2 4.1.1 5.7-1.3 1.1-1.5 1-1.2-.6.1-1-.3-2-1-2.2-.8-.3-1.2.5-1 2.5.1 1.8.7 2.8 1.4 2.5.8-.3 1.1.6 1 2.6-.2 3.6-1 4.6-2.6 3.6-.9-.6-.9-.9 0-1.5.8-.5.8-.9-.3-1.3-1.5-.6-1.7.9-.4 3 .4.6.4 1.3 0 1.6-.5.2-.2.2.5 0 .8-.1 1.2.5 1.1 1.5-.3 3.1.1 4.3 1.1 3.7.6-.3.7.1.4.9-.3.9-1 1.6-1.5 1.6s-.9.7-.9 1.5-.4 1.5-1 1.5c-1.6 0-1.2 2.7.7 4.6 1.5 1.5 1.5 1.8.2 2.8-1.8 1.3-3.4 6.1-3 9.1.1 1.1.2 3 .2 4.2-.1 1.3.4 2.3 1 2.3 1.4 0 .3 16.8-1.2 18.6-.6.8-.4 1.4.6 1.8 1.9.7 1.9 3.5 0 6.2-1.1 1.7-1.2 2.9-.4 5.8.6 2.1.8 4.3.6 4.9-.2.7-.1 2.2.4 3.3.6 1.8.4 2.1-1.1 1.7-1-.3-2.1 0-2.4.6-1.3 2-3.2 1.2-3.4-1.4-.1-1.4.3-2.5.8-2.5a.94.94 0 0 1 1 1c0 .5.5 1 1.1 1 .5 0 .8-.4.5-.9s.1-1.4.9-2.1c1.4-1.1 1.3-1.5-.5-3.2-1.1-1-2.4-1.7-2.8-1.4-1.1.6-1.1.5-2-13.7-.1-1.6-.6-2.5-1.2-2.2s-1-.1-1-.9c0-.9-.6-1.6-1.4-1.6-1.1 0-1.2-.5-.3-2.5.7-1.4 1.7-2.5 2.2-2.5.6 0 1.6-1.4 2.3-3.2.8-2.3.9-2.9 0-2-.8.8-1.5.9-2.5.1-.9-.8-1.3-.8-1.3 0 0 .6-.8 1.1-1.7 1.1-1.5 0-1.6.2-.3 1 1.2.7 1.2 1 .1 1-.8 0-1.1.6-.7 1.5.4 1.2 0 1.4-1.8.9-1.8-.4-2.7 0-3.5 1.4-1.4 2.5-1.4 8.2-.1 8.2.5 0 .9-1 .8-2.3 0-1.2 0-3.1.1-4.2.2-1.8.3-1.8 1.7.5.8 1.4 1.3 1.7 1 .8-.3-1-.1-2 .4-2.3.6-.4 1 .5 1 1.9s.6 2.6 1.3 2.6c.8 0 .9.3.1.8-1.2.7-1.5 4.2-.4 4.2.3 0 .6.9.7 2 .1 1.6-.4 2-2.7 2-1.5 0-3-.6-3.3-1.3-.3-.9-1-.7-2.3.6-1.9 1.8-1.9 1.8 0 1.1 1.6-.6 1.7-.4.7 1.3-.6 1.1-1.7 2.3-2.5 2.6-1.2.5-1.4-.3-1.3-3.9.1-2.4.4-4.4.8-4.4s.9-.9 1.2-1.9c.4-1.7-.1-1.9-3.9-1.9-3.1 0-4.4.4-4.4 1.4 0 .8.7 1.4 1.5 1.4 2.1 0 1.9 4.7-.2 5.9-1.1.6-1.3 1.1-.5 1.1.7 0 1 .5.6 1.1-1.1 1.9-2.8-2.2-2.5-6.3.2-4.2-.9-5-2.4-1.6-1.4 3.3-2.9 2.8-3.3-1-.2-2.1-.7-3-1.5-2.6-.7.3-.3-.2.8-1.1 1.5-1.2 1.7-1.8.7-2.4-.7-.4-1.4-2.5-1.6-4.7-.4-4.2.7-7.5 2.1-6 .4.5.3 1.1-.3 1.3-1.3.4-.7 4.3.7 4.3 1.2 0 1.1-6.7-.1-7.5-.5-.3-1-1.2-1-1.8 0-.8.3-.8.9.1.6 1.1.9.9 1.3-.6.4-1.4.2-1.9-.6-1.6-.7.3-1.3-.1-1.3-.8s-.3-2.7-.7-4.4c-.5-2.4-.3-3.1.9-3.1.8 0 1.5.7 1.5 1.4 0 .8.5 1.1 1 .8.6-.4.8-1 .5-1.5s-.1-1.1.5-1.5c.5-.3 1-1.1 1-1.7 0-.7-.5-.6-1.4.1-1.2 1-1.3.9-.9-.7.2-1.1 0-2.3-.6-2.6-1.6-1.1-1.3-4.3.4-4.3.8 0 1.5.9 1.5 2.1 0 1.7.2 1.8 1 .6.5-.9.5-1.9-.1-2.7-.6-.7-.8-1.7-.5-2.2.4-.5.2-1.2-.4-1.6-1.4-.9-1.2-4.5.3-4.2.6.1 1.5.6 1.8 1 .3.5.9.1 1.2-.8.5-1.1.3-1.4-.5-.9s-.9.2-.5-1c.4-1 .1-1.9-.8-2.3-1.2-.4-1.3-.9-.4-1.9 1.7-2 4-1.8 3.3.3-.5 1.5-.4 1.6.5.3.7-1.1.5-2-1-3.6-1.7-1.8-1.9-2.6-.9-4.3.6-1.3 1.6-1.9 2.3-1.4.9.5.9.3 0-.8-1.7-2.2 3.3-15.3 5.5-14.4 1.2.4 1.2.2.3-.9-1.3-1.6-.4-4.9 1.2-3.9.6.3.7.1.3-.5-.9-1.4 6.5-16.3 7.7-15.5.6.3.7.1.3-.5-1.6-2.6 17.4-29.3 33.6-47.2 10-11.1 21-21.5 47.8-45.2 29-25.6 47.2-45.4 60.5-65.8 9.5-14.4 15-19 23.1-19 8.8 0 17.1 9.2 22.4 24.6 1.8 5.2 1.8 5.2-.4 8.5-13.4 19.9-21.7 33.4-21.4 35.2.2 1.1 1.6 2.9 3.1 4.1 2.5 1.9 3 1.9 5.2.6 1.4-.8 10.4-13.7 20.1-28.5 28-42.9 30.3-46.1 35-50.5 6.4-5.8 9.6-7.1 17.9-6.7 5.4.2 8.6 1 13.8 3.4zM274 368.1c0 .4-.7 1-1.6 1.3-2.3.9-3.1.7-1.5-.3 1.3-.8 1.3-1.2 0-2.7-1.3-1.6-1.2-1.6.9-.3 1.2.8 2.2 1.7 2.2 2zm-2 3.9c0 .5-.4 1-.9 1-.6 0-1.3-.5-1.6-1-.3-.6.1-1 .9-1 .9 0 1.6.4 1.6 1zm-7.5 2.8c-.3.3-1.1 0-1.8-.7-.9-1-.8-1.1.6-.5 1 .3 1.5.9 1.2 1.2zm6-.8c.3.5.1 1-.6 1s-1 .3-.6.6c.3.4 0 1.3-.8 2-.7.8-1.5 1.9-1.7 2.5-.3.9-.9.9-2.4.1-1-.6-1.3-1.2-.6-1.2s1-.5.7-1c-.3-.6.2-1 1.1-1 1 0 1.5-.3 1.1-.6-.6-.7 1.3-3.3 2.5-3.4.4 0 1 .4 1.3 1zm-3.4 13.3c-1 .9-1.1.8-.5-.6.3-1 .9-1.5 1.2-1.2s0 1.1-.7 1.8zM263 389c0 1.3-.5 1.8-1.5 1.4-1.3-.5-1.4-.2-.5 2 1.1 3 .3 3.4-1.5.9-1-1.4-1-2.1.4-4 2-2.8 3.1-2.9 3.1-.3zm-1.9 12.3c-1 .9-1.1.8-.5-.6.3-1 .9-1.5 1.2-1.2s0 1.1-.7 1.8zm-3.9 3.5c-.7.2-1 .8-.6 1.3.3.5.1.9-.5.9-.5 0-1.2 1.8-1.6 4s-1.3 4.7-2.2 5.5c-.8.8-1.2 1.9-.8 2.5.3.5 0 2-.6 3.2-1.3 2.3-1.3 2.3-1.9-.2-.4-1.5-.1-3 .7-3.9.8-.7 1.1-2.2.8-3.2-.4-1.3-.2-1.9.8-1.9 1.7 0 2.7-2.1 2.7-5.4 0-2.6 1.9-4.8 3.4-3.9.6.4.6.8-.2 1.1zm2.2 2.6c-.9.7-1.4 1.8-1 2.4.3.6.2 1.3-.4 1.7-.5.3-1-.1-1-1 0-2.2 2.2-5.5 3.3-4.8.4.3 0 1.1-.9 1.7zm-2.7 7.8c-.2 1.2-.9 2.4-1.5 2.6-1.1.3-1.1-1.6.1-3.6 1.2-1.8 1.7-1.5 1.4 1zm-19.7 5.9c0 1.4-.5 1.9-1.4 1.6-1.1-.4-1.3 0-1 1.7s-.1 2.5-1.6 2.9c-1.7.4-1.8.2-.9-1.4.5-1 .7-1.9.3-1.9s0-.8.9-1.8c1-1 1.4-2.2 1-2.5-.3-.4.1-.7 1-.7 1.1 0 1.7.8 1.7 2.1zm17.7.1c-.2 1.2-.9 2.4-1.5 2.6s-.9-.5-.7-1.5.4-2.1.4-2.6c.1-.4.5-.7 1.1-.7.5 0 .8 1 .7 2.2zm-14.2 1.4c-1.8 1.8-2.1 1.8-2.1-.5 0-1.2.6-1.7 1.8-1.3 1.5.3 1.5.6.3 1.8zm-1.4 3.2c-.7.2-1.8-.1-2.3-.6-.8-.8-.4-.9 1.3-.5 1.3.4 1.8.8 1 1.1zm11 .4c0 1 .2 1 .6 0 .2-.6.9-1.2 1.4-1.2 1.4 0 .4 4.3-1.1 4.8-.7.3-1 0-.6-.7.4-.6.3-1.1-.3-1.1-.5 0-1.3.5-1.7 1.2-.5.8-1 .6-1.4-.8-.4-1-.6-2.2-.3-2.7.7-1.2 3.3-.8 3.4.5zm-11.4 1.4c-.3.3-1.2.4-1.9.1-.8-.3-.5-.6.6-.6 1.1-.1 1.7.2 1.3.5zm-6 3.3c0 1.1-.5 1.7-.9 1.5-1.1-.7-1-3.4.1-3.4.6 0 .9.9.8 1.9zm-1.7 3.3c0 .5-.4.8-1 .8-.5 0-1-1-1-2.3 0-1.8.2-1.9 1-.7.5.8 1 1.8 1 2.2zm12-1.6c0 .8-.5 1.2-1 .9-.6-.4-.8-1.1-.5-1.6.9-1.4 1.5-1.1 1.5.7zm7.6 1.7c-.1 1.7-.8 3.3-1.6 3.5-.7.3-1 0-.6-.6.3-.6-.3-1.3-1.4-1.7-1.1-.3-2-1.5-2-2.5 0-1.4.7-1.8 2.9-1.8 2.6.1 2.9.4 2.7 3.1zM237 434c0 .5-.2 1-.4 1-.3 0-.8-.5-1.1-1-.3-.6-.1-1 .4-1 .6 0 1.1.4 1.1 1zm-8 11c1.4 2.6-.8 5.1-4.2 4.9-2.2-.2-2.2-.2-.1-.6 1.4-.3 2-.9 1.6-1.9-.3-.8 0-1.4.6-1.4a1.11 1.11 0 0 0 1.1-1.1c0-.5-.5-.7-1.2-.3s-.8.3-.4-.4c1-1.6 1.4-1.5 2.6.8zm4-.5c0 .8-.4 1.5-1 1.5-.5 0-.7-.7-.4-1.5.4-.8.8-1.5 1-1.5s.4.7.4 1.5zm-8.7 7.2c-.7.2-2.1.2-3 0-1-.3-.4-.5 1.2-.5 1.7 0 2.4.2 1.8.5zm15.7.3c0 .5-.4 1-.8 1-.5 0-1.9.9-3.2 2-1.5 1.3-2.8 1.7-3.8 1.1-2.1-1.2-5-.2-5.7 2-.4 1.1-1.5 1.9-2.8 1.8-2.1 0-2.1-.1-.2-.9 1.1-.5 1.7-.9 1.3-1.1-2.3-.5-2.9-.7-4.5-.8-3-.2-.4-1.4 2.9-1.3 2.4.1 2.9-.2 1.8-.9-1.1-.8-.9-.9.8-.4 1.3.4 2.9.1 3.7-.5 1.1-.9 1.5-.9 1.5-.1 0 .6.8 1.1 1.8 1.1 1.4 0 1.5-.2.2-1s-1.2-1 .3-1c.9 0 1.7-.5 1.7-1 0-.6 1.1-1 2.5-1s2.5.4 2.5 1zm-19 7c0 .5-.4 1-1 1a1.08 1.08 0 0 1-1-1c0-.6.5-1 1-1a.94.94 0 0 1 1 1zm14.7-.4c-.3.3-1.2.4-1.9.1-.8-.3-.5-.6.6-.6 1.1-.1 1.7.2 1.3.5zm-34 41.6c-.3.8-.6.5-.6-.6-.1-1.1.2-1.7.5-1.3.3.3.4 1.2.1 1.9zm1 16.2c-.3.7-.1 1.8.5 2.4s.6 1.2-.1 1.6c-.6.4-1.1.1-1.2-.6 0-.7-.2-2.1-.4-3.1-.2-.9.1-1.7.7-1.7s.8.6.5 1.4zm6.5 3.6c-.7 1.9-2.8 4-4 4-1.7 0-.7-5.5 1.3-7.2 1.9-1.5 2-1.5 2.6 0 .3.9.4 2.4.1 3.2zm15 1.2c-.6.6-1.5.8-1.9.4s-.1-1.1.7-1.6c1.9-1.2 2.7-.3 1.2 1.2zm2.4.4c-.4 1.1-.2 1.5.8 1.1.9-.4 1.6.3 2 1.8.3 1.3.9 3.1 1.3 4.2.6 1.6.5 1.6-1 .4-.9-.7-1.4-1.7-1.1-2.2s0-.8-.8-.7c-.7.2-1.2-.3-1-1 .1-.8-.2-1.1-.9-.7-.8.5-.8 1 0 1.8 1.7 1.7 1.3 2.2-1.4 2.3-2.1.2-2.4-.1-1.4-1.2.6-.8.9-1.4.6-1.4s-1.2-.3-2-.6c-1.1-.4-1.4.1-1.2 2 .2 1.3-.3 2.7-1 3-.9.3-1.2-.6-1-3.2.4-5.6.5-5.8 1.4-4.4.6 1 1.3 1.1 3.4.1 1.5-.7 2.7-1.6 2.7-2.1 0-.4.3-.8.6-.8s.3.7 0 1.6zm7.1-.1c0 .8-.4 1.5-.9 1.5-.4 0-.8-.7-.8-1.5s.4-1.5.8-1.5c.5 0 .9.7.9 1.5zm-28.7 3.8c1.2.4 1.1.6-.2.6-1.1.1-1.8.9-1.8 2.2 0 1.6.5 2 2 1.6 1.1-.3 2-.1 2 .5 0 .5.6.6 1.3.2 1-.6 1-.4 0 .7-.7.7-1.3 2.1-1.3 3.1 0 2-2.9 2.5-3.1.5-.1-.6-.5-.1-.9 1.3-.7 2.1-.8 1.8-1-2-.2-2.5-.3-5.6-.4-7-.2-3 .4-4.6 1.3-3.3.3.6 1.3 1.3 2.1 1.6zm7.8 3.2c.1 1.9-.3 3.5-.8 3.5s-.6-.7-.3-1.7c.4-1 .2-1.4-.4-1-.7.4-1 0-.8-1s.4-2.1.4-2.6c.1-.4.5-.7.9-.7.5 0 .9 1.6 1 3.5zm14 1.4c.8.4 1.3 1.2 1.2 1.7-.1.4.7 1.1 1.7 1.5 1.3.6 1.4.8.3.8-1.3.1-1.3.2 0 1.1 1.3.8 1.2 1-.4 1-2 0-2 0 0 1.6 1.5 1.3 1.6 1.5.2 1-1.2-.3-1.5-.1-1.2.9.3.8 1 1.3 1.6 1.2s1.2.6 1.3 1.5c.2 1-.3 1.8-1.1 1.8-.9 0-1.4 1.1-1.4 3s.5 3 1.4 3c.7 0 1.6 1.1 1.8 2.5.3 1.4.1 2.5-.3 2.5-.5 0-.9 2.1-.9 4.6s-.4 4.3-.9 4-.7-2.7-.5-5.3c.1-2.7.1-4.2-.2-3.6-1 2.4-1.9 1.3-2-2.3-.1-2-.8-4-1.5-4.5-.9-.5-1-.9-.2-.9 1.2 0 1.2-1.7 0-3.8-.5-.7-.3-1.2.5-1.3.9 0 1-.2.1-.5-.7-.3-.9-1.2-.6-2 .3-1 0-1.2-1-.9-.9.4-1.6-.1-2-1.4-.5-1.9.3-2.6 2.6-2.2.4 0 .7-.4.7-1s-.9-.8-2-.4c-1.5.5-2 .2-2-1.3 0-1.8 1.1-2.9 3-3.1.3 0 1.1.3 1.8.8zm-7.1 5.3c-.3.8-.6.5-.6-.6-.1-1.1.2-1.7.5-1.3.3.3.4 1.2.1 1.9zm23.7 1.9c-.8 1.3-2.4.1-2.4-1.8 0-1.3.3-1.3 1.5-.3.8.7 1.2 1.6.9 2.1zM213 536c0 .5-.5 1-1.1 1-.5 0-.7-.5-.4-1 .3-.6.8-1 1.1-1 .2 0 .4.4.4 1zm7.3 3c-.3 1.1-.8 2-1.2 2s-.7-.9-.7-2 .6-2 1.2-2c.7 0 1 .8.7 2zm-6.6-.4c-.3.3-1.2.4-1.9.1-.8-.3-.5-.6.6-.6 1.1-.1 1.7.2 1.3.5zm-10.7 1.5c0 .6 1.1.8 2.9.4 2.6-.6 2.8-.4 2.4 1.9-.4 1.9-.1 2.6 1.1 2.6.9 0 1.6.5 1.6 1.1 0 .5-.4.8-.9.4-1.4-.8-2.5 1.5-1.3 2.7.8.8.6 1.5-.4 2.5-1.2 1.3-1.7 1.3-3.1.1-1.2-1-1.7-1-2-.1-.5 1.3-3.3.6-3.3-.9 0-.5.4-.7.9-.3.5.3 1.2.1 1.6-.5s1-.8 1.5-.5c1.4.9 2.3-1.5 1-2.9-.8-1.1-.8-1.5.2-1.9.8-.3.6-.6-.5-.6-1-.1-1.5-.5-1.2-1.1.3-.5 0-.7-.9-.4-1 .4-1.4 0-1.3-1.5.1-2.1 1.7-3 1.7-1zm39.3.5c-.3.8 0 1.4.6 1.4 2 0 1.2 1.7-1.4 2.8-3.4 1.6-3.5 1.6-3.5-1.1 0-1.3-.4-2.7-.9-3.3-.6-.5.3-1 2.4-1.1 2.6-.1 3.3.2 2.8 1.3zm-22.3 2.9c0 .8-.4 1.5-1 1.5-.5 0-.7-.7-.4-1.5.4-.8.8-1.5 1-1.5s.4.7.4 1.5zm-17.5 4.3c-.2.9-.4 1.9-.4 2.1-.1.3-.6 0-1.2-.6-1.3-1.3-.4-4.7 1-3.9.5.4.8 1.4.6 2.4zM232 546c0 .5-.4 1-1 1a1.08 1.08 0 0 1-1-1c0-.6.5-1 1-1a.94.94 0 0 1 1 1zm13.5 3.5c.2 1.5-2.6 4.5-4.2 4.5-.7 0-1.3-.7-1.3-1.6 0-1.1.6-1.3 1.9-.9 1.7.5 1.8.1 1.5-3.2-.4-3.4-.3-3.6.8-1.8.7 1.1 1.3 2.4 1.3 3zm-21.8-1.9c-.3.3-1.2.4-1.9.1-.8-.3-.5-.6.6-.6 1.1-.1 1.7.2 1.3.5zm14.9 3.1c-1.1 1.1-1.9-.6-1.1-2.4.8-1.7.8-1.7 1.2 0 .3 1 .2 2.1-.1 2.4zm2.9-2.7c.3.5.1 1-.4 1-.6 0-1.1-.5-1.1-1 0-.6.2-1 .4-1 .3 0 .8.4 1.1 1zm-21.5.4c0 .3-.4.8-1 1.1-.5.3-1 .1-1-.4 0-.6.5-1.1 1-1.1.6 0 1 .2 1 .4zm2.2 5.6c-.3 3.2 0 5 .7 5 .6 0 1.1 1.2 1 2.7-.1 2.6-.1 2.7-.7.5-.4-1.3-1.1-2.4-1.7-2.5-.9-.2-1.5-8.3-.7-10 1-2.1 1.7-.1 1.4 4.3zm24.2 2.4c1 1.6 1.2 2.7.6 3.1s-.9.1-.8-.7c.2-.7-.7-1.4-1.9-1.6-2.3-.3-2.9-1.3-1.6-2.5 1.1-1.2 2-.8 3.7 1.7zm-5.4.1c0 .8-.4 1.5-1 1.5-.5 0-.7-.7-.4-1.5.4-.8.8-1.5 1-1.5s.4.7.4 1.5zm-13 1.5c0 .5-.5 1-1.1 1-.5 0-.7-.5-.4-1 .3-.6.8-1 1.1-1 .2 0 .4.4.4 1zm16 4c0 .5-.4 1-1 1a1.08 1.08 0 0 1-1-1c0-.6.5-1 1-1a.94.94 0 0 1 1 1zm2.6 2c.1 1.6-.2 3-.8 3-.7 0-.6-3.5.1-5.8.3-.9.6.2.7 2.8zm-11.9 5.6c-.3.3-1.2.4-1.9.1-.8-.3-.5-.6.6-.6 1.1-.1 1.7.2 1.3.5zm-7 14.6c-.3.8-.6.5-.6-.6-.1-1.1.2-1.7.5-1.3.3.3.4 1.2.1 1.9zm4.3 26.2c0 .3-.4.8-1 1.1-.5.3-1 .1-1-.4 0-.6.5-1.1 1-1.1.6 0 1 .2 1 .4zm4 7.6c0 .5-.5 1-1.1 1-.5 0-.7-.5-.4-1 .3-.6.8-1 1.1-1 .2 0 .4.4.4 1zm8.5 14c-.3.5-1.2 1-1.8 1-.7 0-.6-.4.3-1 1.9-1.2 2.3-1.2 1.5 0zm2.2 2.9c.1 1.1-.5 2.2-1.3 2.5-1.7.6-1.8.1-.4-2.5 1.3-2.4 1.5-2.4 1.7 0zm3.8 7.1c-.3.5-1.2 1-1.8 1-.7 0-.6-.4.3-1 1.9-1.2 2.3-1.2 1.5 0zm.5 3c-1.2.8-1.2 1-.1 1 .8 0 1.2.3.8.6-.9.9-2.8-.6-2.2-1.7.4-.5 1.2-.9 1.8-.9.7 0 .6.4-.3 1zm7.6 7.5c-.2 1.6-2.6 4.4-2.6 3.1 0-.9 1.9-4.6 2.4-4.6.3 0 .3.7.2 1.5zm29.9 4.4c-.6.5-2.5-1-2.5-2 0-.5.6-.4 1.4.3s1.2 1.5 1.1 1.7zm-28.5-.5c0 .2-.7.7-1.6 1-.8.3-1.2.2-.9-.4.6-1 2.5-1.4 2.5-.6zm3 1.6c0 .5-.5 1-1.1 1-.5 0-.7-.5-.4-1 .3-.6.8-1 1.1-1 .2 0 .4.4.4 1zm35.7 12.2c-.3.8-.6.5-.6-.6-.1-1.1.2-1.7.5-1.3.3.3.4 1.2.1 1.9zm465.5 0c-1.1 1.3-2.1 2.7-2.1 3.2 0 1-3.1 1.9-3.1.9 0-.7 6.1-6.3 6.8-6.3.3 0-.4 1-1.6 2.2zM277 682c0 .5-.7 1-1.6 1-.8 0-1.2-.5-.9-1 .3-.6 1-1 1.6-1 .5 0 .9.4.9 1zm3 2c0 .5-.9 1-2.1 1-1.1 0-1.7-.5-1.4-1 .3-.6 1.3-1 2.1-1s1.4.4 1.4 1zm3.2 3c1.9 1.7 1.9 2 .5 2-.9 0-1.7-.5-1.7-1 0-.6-.7-1-1.6-1-.8 0-1.2-.5-.9-1 .9-1.4 1.3-1.3 3.7 1zm3.5 3.6c-.3.3-1.2.4-1.9.1-.8-.3-.5-.6.6-.6 1.1-.1 1.7.2 1.3.5zm3 2c-.3.3-1.2.4-1.9.1-.8-.3-.5-.6.6-.6 1.1-.1 1.7.2 1.3.5zM701.5 709c-.3.5-1.1 1-1.6 1-.6 0-.7-.5-.4-1 .3-.6 1.1-1 1.6-1 .6 0 .7.4.4 1zm-5.4 2c-2.5 2.1-4.6 2.7-3.6 1 .3-.6 1.3-1 2.1-1s1.4-.5 1.4-1c0-.6.6-1 1.3-1 .6.1.1 1-1.2 2zm-15.7 3.6c.3.8.2 1.2-.4.9s-1-1-1-1.6c0-1.4.7-1.1 1.4.7zm4.3 1.4c-6.5 3.3-6.7 3.4-6.7 2 0-.6.9-1 2-1s2-.5 2-1c0-.6.9-1 1.9-1 1.1 0 2.3-.5 2.6-1 .3-.6 1.4-1 2.3-1s-1 1.3-4.1 3zm-7.6.3c-.5.5-2.4 1-4.2 1.3-3.2.4-3.3.4-1.5-1 2-1.6 7.2-1.8 5.7-.3zm-346.4.3c-.3.3-1.2.4-1.9.1-.8-.3-.5-.6.6-.6 1.1-.1 1.7.2 1.3.5zm3.6 2.1c-.7.2-1.9.2-2.5 0-.7-.3-.2-.5 1.2-.5s1.9.2 1.3.5zm341.1 1.1c.3.5-.8.6-2.5.4-1.6-.2-2.9-.6-2.9-.8 0-.8 4.9-.4 5.4.4zm-333.1 2.9c-.7.2-1.9.2-2.5 0-.7-.3-.2-.5 1.2-.5s1.9.2 1.3.5zm332.7.7c0 1.1-1.9 1.5-2.5.6-.3-.5.1-1 .9-1 .9 0 1.6.2 1.6.4zm-328.7 1.3c-.7.2-1.9.2-2.5 0-.7-.3-.2-.5 1.2-.5s1.9.2 1.3.5zm5 2c-.7.2-2.1.2-3 0-1-.3-.4-.5 1.2-.5 1.7 0 2.4.2 1.8.5zM641 728c0 1.1-.4 2-.8 2s-.8-.9-.8-2 .4-2 .8-2 .8.9.8 2zm-284.5 0c.4.6-.7 1-2.7.9-3.1-.1-3.2-.1-.8-.9 1.4-.4 2.6-.8 2.7-.9s.5.3.8.9zm276.5.9c0 .4 1.2.6 2.8.4 2-.3 2.3-.2 1.2.5-.8.5-2.4 1.2-3.5 1.6-1.6.5-2.1.1-2.1-1.4 0-1.1.4-2 .8-2s.8.4.8.9zM362 730c0 .5-1.2 1-2.7 1-2.2 0-2.5-.2-1.3-1 2-1.3 4-1.3 4 0zm260.5 0c.3.5.1 1-.4 1-.6 0-1.1-.5-1.1-1 0-.6.2-1 .4-1 .3 0 .8.4 1.1 1zM368 732.8c0 .9.7 1.2 2 .9 1-.3 2.5.2 3.1.9.7.8 1.7 1.3 2.3 1.1s2-.1 3.1.4c1.4.5.2.8-3.5.8-4 0-4.9-.3-3.5-.9 1.6-.7 1.2-.9-1.8-.9-2.3-.1-3.6-.5-3.2-1.1s-.7-1-2.7-1c-2.5 0-2.9-.3-1.8-1 2.1-1.3 6-.8 6 .8zm257.4-.3c-.4.8-.8 1.5-1 1.5s-.4-.7-.4-1.5.4-1.5 1-1.5c.5 0 .7.7.4 1.5zm-10.4 2c0 .8-.4 1.5-1 1.5-.5 0-.7-.7-.4-1.5.4-.8.8-1.5 1-1.5s.4.7.4 1.5zm-169.3 1.9c-.3.8-.1 1.7.6 2 .7.2.2.5-1 .5-2.3.1-2.7-1.7-.8-3.1 1.5-1.1 1.8-1 1.2.6zm106.3-1c0 .8-5.1 1.3-5.6.5-.3-.5.9-.9 2.5-.9 1.7 0 3.1.2 3.1.4zm-102.6 2.1c-.4.8-.8 1.5-1 1.5s-.4-.7-.4-1.5.4-1.5 1-1.5c.5 0 .7.7.4 1.5zm129 .9c-.5 1.4-.9 1.5-1.5.5-.5-.8-.3-1.7.4-2.1 1.5-.9 1.9-.4 1.1 1.6zm-6.4.6c0 .5-.5 1-1.1 1-.5 0-.7-.5-.4-1 .3-.6.8-1 1.1-1 .2 0 .4.4.4 1zm10.1.9c.4-.7 1.1-1 1.4-.7 1.1 1.1-.5 2.8-2.5 2.8-1.4 0-1.8-.5-1.3-1.7s.8-1.3 1.1-.4c.4 1.1.6 1.1 1.3 0zm-5.6 2.1c.3.5.1 1-.4 1-.6 0-1.1-.5-1.1-1 0-.6.2-1 .4-1 .3 0 .8.4 1.1 1zm19 0c.3.6-.1.7-.9.4-1.8-.7-2.1-1.4-.7-1.4.6 0 1.3.4 1.6 1zM251.3 390.4c-1.2 1.4-.7 2.6.9 2.6.5 0 .6-.5.3-1-.3-.6-.1-1 .4-1 .6 0 1.1-.5 1.1-1 0-1.4-1.3-1.2-2.7.4zm-3.4 2.5c.8.5 1 1.4.6 2.2-.6 1.1-.5 1.1.5.2 1.4-1.2.6-3.3-1.3-3.3-.8 0-.7.3.2.9zm-2.4 2.1c.3.5.8 1 1.1 1 .2 0 .4-.5.4-1 0-.6-.5-1-1.1-1-.5 0-.7.4-.4 1zm-3.5 2.5c-1 1.2-1 1.5.3 1.5.9 0 1.9.5 2.3 1.2.5.8 0 .9-1.5.5-1.5-.3-2.8.2-4.2 1.6-2 2.1-2 2.1.3 3 1.4.6 1.8 1.1 1 1.4-.6.3-1 .9-.6 1.4.3.5 0 .9-.6.9s-.8.4-.5 1c.3.5.1 1-.5 1s-.8-1.1-.6-2.6c.4-2.1.2-2.3-.9-1.4s-1.3 2.9-.5 5a4.3 4.3 0 0 1 .2 1.2c-.1.3.5.9 1.4 1.2.8.3 1.3.2.9-.3-.3-.5 0-1.5.7-2.3.7-.7 1.4-2 1.6-2.8s.7-1.7 1.1-2c.5-.3 1.6-2 2.6-3.9 1.6-3.2 1.6-3.5.1-4.7-1.3-.9-1.4-1.3-.4-1.7.8-.3.8-.6.2-.6-.6-.1-1.7.6-2.4 1.4zm.7 6c-1.5 1.6-2.8 1-2.1-1 .3-.7 1.2-1.1 1.9-.8 1.1.4 1.2.8.2 1.8zm3.8-5.5c.3.5.8 1 1.1 1 .2 0 .4-.5.4-1 0-.6-.5-1-1.1-1-.5 0-.7.4-.4 1zm5.5 0a1.08 1.08 0 0 0 1 1c.6 0 1-.5 1-1a.94.94 0 0 0-1-1c-.5 0-1 .4-1 1zm-6 7.4c0 .2.7.7 1.6 1 .8.3 1.2.2.9-.4-.6-1-2.5-1.4-2.5-.6zm-1 2.6c0 .5.5 1 1.1 1 .5 0 .7-.5.4-1-.3-.6-.8-1-1.1-1-.2 0-.4.4-.4 1zm356 4.1c-8.9 1.5-19 7-25.4 14-7.3 7.9-10.2 13.3-8.7 16.6 1.2 2.6 5.2 4.6 7.6 3.7.9-.4 3.2-3.1 5.1-6 7.1-10.7 16.9-16.4 28.4-16.4 11.9 0 23 6.7 29.2 17.7 3.5 6.1 6 7.3 9.7 4.6 3.4-2.6 3.7-5.2 1.3-10-8.5-16.5-29.3-27.2-47.2-24.2zm-201.1 19.2c-8.1 2.8-13.5 6.4-19.7 13.2-5.6 6.1-10.6 15.7-9.7 18.6.4 1.1 1.8 2.7 3.1 3.6 3.7 2.4 6.8.5 10.3-6.5 7.5-14.9 23.5-22 38.8-17.4 7.8 2.4 12.7 6.1 18.4 13.8 2.3 3.1 4.7 5.4 5.8 5.4 2.4 0 7.1-3.7 7.1-5.6 0-4.7-7.8-14-16.4-19.6-12-7.8-25.4-9.7-37.7-5.5zm-176.6.4c0 .7.4 1.3.8 1.3s.9-.6 1.2-1.3c.3-.8 0-1.4-.7-1.4s-1.3.6-1.3 1.4zm-4.8 8.3c-.3.5-.1 1 .4 1 .6 0 1.1-.5 1.1-1 0-.6-.2-1-.4-1-.3 0-.8.4-1.1 1zm-3.8 10c-.5 2 .9 3.8 2 2.6.4-.3.1-.6-.5-.6s-.9-.7-.6-1.5c.4-.8 1.1-1.2 1.7-.8.6.3.7.1.3-.5-1.1-1.8-2.3-1.4-2.9.8zm334.8 9.5c-3.3 7.5-7.1 9.4-15.1 7.7-3.6-.7-6.8-2.2-9-4.2-1.9-1.6-4.2-3-5-3-1.6 0-7.4 5.5-7.4 7 0 .5-1.5 1.8-3.4 2.9-6.6 4.1-16.8 2-21-4.4-2.4-3.7-5-4.7-8.1-3.3-8.5 3.8.4 17.4 14.1 21.4 8.1 2.3 17.8.2 23.6-5.3 2.7-2.6 2.7-2.6 9.8-.3 13.6 4.4 25.6.4 31.1-10.2 3.7-7.3 1.6-13.8-4.5-13.8-2.3 0-3.1.8-5.1 5.5zM221 463a1.08 1.08 0 0 0 1 1c.6 0 1-.5 1-1a.94.94 0 0 0-1-1c-.5 0-1 .4-1 1zm14 1.2c-2 1.2-3 2.4-2.6 3.3.6 1.7.2 1.8-3.2.8-1.8-.4-2-.8-1-1.4.9-.6.9-.9.1-.9-.6 0-1.5.4-1.8 1-.3.5-1.8 1-3.3 1.1-2.4 0-2.5.1-.7.9 1.9.8 1.9.9-.2.9-1.7.1-2 .5-1.5 2.3.3 1.2.7 1.7 1 1 .6-1.8 3.3-1.5 4.9.5 1.4 1.7 1.4 1.7.9 0-.5-1.5-.2-1.7 1.7-1.2 2.2.7 2.2.7.2-.9-2-1.5-2-1.5.5-1.5 1.4 0 3.4.4 4.5.9 1.9.8 1.9.9.1.9-1.1.1-1.6.4-1.3.7.4.4-.3 1.5-1.4 2.5-2.1 1.8-1.8 4.6.3 3.3.7-.4.8-.2.4.4-.4.7-.2 1.2.3 1.2.6 0 1.6-.9 2.3-2s2.2-2 3.4-2c2.3 0 2.7-2 .7-3.8-1-1-1.3-1-1.4 0 0 .7-.4.3-.9-1-1.2-3-.2-5.5 2.1-4.9 1.4.4 2.9-1 2.9-2.8 0-1.3-4.5-.9-7 .7zm-19.2 3.5c.7.3 1.6.2 1.9-.1.4-.3-.2-.6-1.3-.5-1.1 0-1.4.3-.6.6zm-3 3.7c-.4 1.7-.1 2.3.9 1.9 1.4-.6 1.8-4.3.4-4.3-.5 0-1.1 1.1-1.3 2.4zm3.2-1.4c0 .5.5 1 1.1 1 .5 0 .7-.5.4-1-.3-.6-.8-1-1.1-1-.2 0-.4.4-.4 1zm.1 4.7c0 2.5.1 2.6.9.8 1.2-2.7 1.2-3.5 0-3.5-.5 0-1 1.2-.9 2.7zm9.4 4.3c1.1.5 2.8 1.1 3.8 1.4s1.5 1 1.2 1.6c-.3.5-.1 1 .4 1 1.6 0 1.3-1.6-.5-3.4-.8-.9-2.7-1.6-4.2-1.5-2.4 0-2.5.1-.7.9zm-14 1c-.3.5-.1 1 .4 1 .6 0 1.1-.5 1.1-1 0-.6-.2-1-.4-1-.3 0-.8.4-1.1 1zm7.5 2c0 1.3.6 2 1.8 1.9 1 0 1.2-.3.5-.6-2.9-1.1-1.1-2.5 2.5-2 2.5.5 3.2.3 2.2-.3-.8-.5-2.7-1-4.2-1-2.1 0-2.8.5-2.8 2zm14.6.2c.4 1.2.1 1.8-.9 1.8-.8 0-1.7.9-2 2-.4 1.6 0 2 1.8 2 2.6 0 7.8-4.8 6.8-6.3-.5-.8-.8-.7-1.1.1-.2.7-.8 1-1.3.6-.5-.3-.9 0-.9.7s-.7.4-1.5-.7c-1.3-1.6-1.4-1.6-.9-.2zm-10.1 6.9c-.9 1.3.4 2.7 1.3 1.4.8-1.2 3.2-1.3 5-.2.6.5 1.2.4 1.2-.1 0-2.1-6.4-3-7.5-1.1zm-14 .9c-.8 1.3.5 1.3 2.5 0 1.3-.8 1.3-1-.2-1-.9 0-2 .4-2.3 1zm9.5 1c0 .5.4 1 .9 1 .6 0 1.3-.5 1.6-1 .3-.6-.1-1-.9-1-.9 0-1.6.4-1.6 1zm-2.8 2.9c-1.1.7-1.1.9.2 1.4.9.4 1.6.2 1.6-.3s.8-1.1 1.8-1.3c1.4-.4 1.4-.5-.3-.6-1.1 0-2.6.3-3.3.8zm20.8 1.7c0 .8.5 1.2 1 .9.6-.3 1-1 1-1.6 0-.5-.4-.9-1-.9-.5 0-1 .7-1 1.6zm-17.9 3.4c-.1 2-.3 2.2-1.1 1s-1-1-1 1.1c0 1.6.5 2.6 1.5 2.6.8 0 1.3-.3 1-.5-.3-.3-.1-1 .4-1.6s.5-2 0-3.1c-.7-1.8-.8-1.8-.8.5zm-10.5 2.5c-2 2.1-2.1 4.6-.1 3.9 1.5-.6 3.1-4.2 2.2-5-.2-.3-1.2.2-2.1 1.1zm9.2 5.2c.7.3 1.6.2 1.9-.1.4-.3-.2-.6-1.3-.5-1.1 0-1.4.3-.6.6zm7.2 1.8c0 .8.2 1.5.4 1.5s.6-.7 1-1.5c.3-.8.1-1.5-.4-1.5-.6 0-1 .7-1 1.5zm-4.3 3.2c-.4.3-.7 1.1-.7 1.7s.5.5 1.2-.2c.6-.6.9-1.4.7-1.7-.3-.3-.9-.2-1.2.2zm2.9.1c-.2.4.4.8 1.5.8 1 0 1.9-.4 1.9-.8s-.6-.8-1.4-.8-1.7.4-2 .8zm13.1 4.1c-.5 2.2 1.5 3.5 3.1 1.9.8-.8.7-1.5-.3-2.4-1.8-1.8-2.2-1.8-2.8.5zm434 13.3c-3.3 3-41.5 49.2-45.6 55.2-10 14.5-9.7 27.5.9 37 6.5 5.8 12 7.9 21.5 7.9 6.7.1 9.3-.4 16-3.1 4.4-1.8 10.8-5 14.3-7.2 5.2-3.3 6.2-4.4 6.2-6.8 0-3.3-2.7-6.2-5.7-6.2-1.2 0-5.2 1.8-9 4-9.4 5.4-14.7 7.1-21.8 7.3-6.7.1-13.1-2.5-15.9-6.5-2.6-3.6-2-10.6 1.3-16.3 1.6-2.8 10.9-14.7 20.8-26.5 30.8-37.1 28.8-34 25.6-37.8-2.9-3.3-5.8-3.6-8.6-1zm-297.1 17.9c-1.4 1.1-2.6 3.1-2.6 4.3 0 1.4 7.3 11.1 20.8 27.2 24.8 30 25.8 31.2 28.2 36.6 2.7 6 2.5 10-.6 13.8-7.6 9-18.6 8.8-36.1-.6-4.6-2.4-9.1-4.4-10.1-4.4-2.6 0-5.2 3.1-5.2 6.2 0 4.5 10 11.1 23.8 15.7 20.7 7 42.2-5.2 42.2-23.9 0-9.5-4.1-16.1-28.5-45.5-20.7-25-26.6-31.5-28.4-31.5-.4 0-2 .9-3.5 2.1zM207.5 558c-.3.5-1.6 1-2.8 1.1-1.2 0-1.6.3-.9.6.6.2 1.2 1.1 1.2 1.9 0 .9.5 1.2 1 .9.6-.4.8-1.1.5-1.6-.8-1.2.2-1.1 2.7.2 1.6.9 1.9.8 1.5-.3-.2-.7-1-1.2-1.7-1-1.1.3-1.1 0 0-1.2.7-1 .8-1.6.2-1.6s-1.4.4-1.7 1zm-1.5 9.1c0 .5.5.7 1 .4.6-.3 1-.8 1-1.1 0-.2-.4-.4-1-.4-.5 0-1 .5-1 1.1zm.4 3.7c.2.9.8 1.7 1.5 1.8.8.2.8.1 0-.3s-.8-.7.1-1.3c.9-.5.8-.9-.3-1.3-1-.4-1.4 0-1.3 1.1zm.7 4.9c0 .4.4 1.7.9 2.8.8 1.9.9 1.9.9-.2.1-1.2-.3-2.5-.9-2.8-.5-.3-1-.3-.9.2zm3 10.9c0 1.1.3 1.4.6.6.3-.7.2-1.6-.1-1.9-.3-.4-.6.2-.5 1.3zm.7 3.6c.5.5 1.6.8 2.3.6.8-.3.3-.7-1-1.1-1.7-.4-2.1-.3-1.3.5zm1.2 2.8c0 .5.5 1 1.1 1 .5 0 .7-.5.4-1-.3-.6-.8-1-1.1-1-.2 0-.4.4-.4 1zm2 6c0 .5.5 1 1.1 1 .5 0 .7-.5.4-1-.3-.6-.8-1-1.1-1-.2 0-.4.4-.4 1zm2 6c0 .5.5 1 1.1 1 .5 0 .7-.5.4-1-.3-.6-.8-1-1.1-1-.2 0-.4.4-.4 1zm2.7 9.1c.7.7 1.5 1 1.8.7s-.2-.9-1.2-1.2c-1.4-.6-1.5-.5-.6.5zm3.2 4.1c-.5 1.8-.6 3.8-.1 3.4.7-.8 1.2-3.6.6-3.6-.2 0-.4.1-.5.2zm1.1 6.5c.1.5 1 2.4 2.1 4.3 1.2 2.2 1.8 2.8 1.7 1.5-.2-1.1-.9-2.6-1.6-3.3-.7-.8-1-1.8-.7-2.3.4-.5.1-.9-.4-.9-.6 0-1.1.3-1.1.7zm6.7 2c-.4.3 0 1.5 1 2.5 1.2 1.3 1.3 1.8.3 1.8-.9 0-.7.5.5 1.3 1 .8 1.5 1.9 1.2 2.4-.4.6 0 1.4.9 1.7 1 .4 1.4 1.2 1 2.2-.4 1.1-.2 1.5.7 1.1.8-.3 1.8.7 2.6 2.4 1.5 3.3 2.7 3.8 2.7 1 0-1-.5-1.7-1.2-1.4-.7.2-1-.5-.9-2.1.2-1.8-.1-2.3-1.1-1.9s-1.2 0-.8-1.1c.4-1.2.2-1.5-.9-1-1.2.4-1.5-.1-1.3-1.9.2-1.9-.1-2.4-1.2-1.9-.9.3-1.3.1-.9-.5s0-1.6-.8-2.3-1.2-1.6-.9-2.1c.6-1.1 0-1.2-.9-.2zm3.3 16.4c0 .5.5.7 1 .4.6-.3 1-.8 1-1.1 0-.2-.4-.4-1-.4-.5 0-1 .5-1 1.1zm1.7 3c.7.7 1.5 1 1.8.7s-.2-.9-1.2-1.2c-1.4-.6-1.5-.5-.6.5zm6.9-.2c-.3.5.1 2.2.9 3.7.8 1.6 1.5 2.7 1.6 2.4.6-3.5.4-4.7-.8-4.3-.9.4-1.1 0-.7-1.1.7-1.7-.1-2.2-1-.7zm3.8 6.6c-.4 1.1-.9 2.4-1.2 2.9s.3.6 1.2.3c1.4-.6 1.7-.3 1.2.9-.4 1.2-.2 1.5.9 1 .9-.3 1.5 0 1.5.8 0 .7.6 1.9 1.4 2.5 2.1 1.7 3.1-.5 1.2-2.5-.9-.9-1.3-2-1-2.6.4-.7.2-.8-.4-.4s-1.7-.5-2.6-2.1c-1.3-2.6-1.5-2.7-2.2-.8zm-5.9.4c-.3.5-.2 1.2.3 1.5s.9-.1.9-.9c0-1.7-.3-1.9-1.2-.6zm3.4 5.3c2.1 2.4 4.1 2.9 4.1 1.1 0-.4-.3-.3-.7 0-.3.4-1.8-.3-3.2-1.5-2.6-2.3-2.6-2.3-.2.4zM755 677.5c-.9 1.1-.8 1.8.4 3 .9.9 1.6 1.2 1.6.6 0-.5-.5-1.3-1-1.6-.6-.4-.8-1.1-.4-1.6.4-.6 1.1-.6 2 .2.8.7 1.4.7 1.4.1 0-1.7-2.8-2.2-4-.7zm-482 12.9c0 .2.8 1 1.8 1.7 1.5 1.3 1.6 1.2.3-.4s-2.1-2.1-2.1-1.3zm460 1.1c-1.4 1.6-.3 2 1.9.6.8-.5.9-1.1.3-1.5-.5-.3-1.5.1-2.2.9zm-4 2c-1 1.2-1 1.8-.2 2.6.7.5 1 .6.7.3-.3-.4 0-1.3.7-2.1.6-.7.9-1.6.6-1.8-.3-.3-1.1.2-1.8 1zm-5.5 6.5c-.3.5-.1 1 .4 1 .6 0 1.1-.5 1.1-1 0-.6-.2-1-.4-1-.3 0-.8.4-1.1 1zm4.6 2.6c0 1.1.3 1.4.6.6.3-.7.2-1.6-.1-1.9-.3-.4-.6.2-.5 1.3zm-11.6 1.4c.4.6 1.1.8 1.6.5 1.4-.9 1.1-1.5-.7-1.5-.8 0-1.2.5-.9 1zm-3.9 1.5c.3.7-1.1 2-3.1 2.9-2 1-3.4 2-3.2 2.3.5.4 9.7-4.5 9.7-5.2 0-.1-.9-.5-1.9-.8-1.3-.3-1.8 0-1.5.8zm-13.6 8.6c0 .5.5.7 1 .4.6-.3 1-.8 1-1.1 0-.2-.4-.4-1-.4-.5 0-1 .5-1 1.1zm-379 4.6c0 .5 1 1.8 2.3 2.9 2.2 1.9 2.2 1.9.2-.6-1.1-1.4-2.1-2.7-2.2-2.9-.2-.2-.3 0-.3.6zm345 3.3c-2.4.8-2.3.8.8.9 2 .1 3.1-.3 2.7-.9-.3-.6-.7-1-.8-.9s-1.3.5-2.7.9zm-333 2.8c0 .7-.4 1.1-.9.7-.5-.3-1.2-.1-1.5.4-.3.4.4.8 1.7.7s2.1.4 1.9 1.2c-.1.9.6 1.2 2 1s2.2.2 2.1.9c-.2.8.7 1.2 2.1 1.1s2.2-.6 2-1c-.3-.5-.9-.6-1.4-.3-.4.3-1.3-.2-2-1s-1.6-1.3-2-1c-.5.3-1.6-.5-2.4-1.7-.9-1.2-1.6-1.7-1.6-1zm15.2 8.8c-1.1 1.2-.9 1.3 1 1.1 1.2-.2 2.4-1 2.6-1.8.3-1.2.2-1.2-.6 0-.6.7-1.1.9-1.3.3s-.9-.4-1.7.4zm4.2 2.5c-.3.5.6.8 2 .7 2.6-.2 2.6-1 .1-1.4-.8-.1-1.7.2-2.1.7zm288.2.1c.4.7.3.8-.5.4-.6-.4-1.8 0-2.7.8-1.6 1.7-1.3 1.9 2.4 1.6 1.2-.1 2.2.4 2.3 1.2 0 .7.4.2 1-1 1-2.7.4-4.2-1.7-4.2-.9 0-1.2.5-.8 1.2zM464 738.1c0 .5.5.7 1 .4.6-.3 1-.8 1-1.1 0-.2-.4-.4-1-.4-.5 0-1 .5-1 1.1zm72.7-.5c-.3.3-.3 1.3 0 2.1.5 1.2.7 1.2 1.4.1 1.5-2.3.4-4-1.4-2.2zm94.7 1.9c-.9 2.1-.2 2.6 1.3 1 .8-.9.9-1.6.3-2-.6-.3-1.3.1-1.6 1zm-7.8 1.1c-.9 2.3-.7 3.6.4 2.9.6-.3 1 0 1 .7 0 .9.3.9 1-.2.8-1.2 1-1.2 1-.1 0 .8.2 1.2.5.9.9-.8-.6-3.8-1.6-3.2-.5.3-.6-.2-.3-1 .3-.9.2-1.6-.4-1.6-.5 0-1.3.7-1.6 1.6zM388.3 743c.1 1.2.7 1.8 1.4 1.6.7-.3 1.3-.2 1.3.3 0 .4.7.8 1.6.8 1.5 0 1.5-.1 0-1.2-.9-.7-1.6-1.7-1.6-2.4 0-.6-.6-1.1-1.4-1.1-.9 0-1.4.9-1.3 2zm81.3-.1c-.3.5.1 1.1.9 1.5.8.3 1.5.1 1.5-.4 0-1.3-1.8-2.2-2.4-1.1zm91.4.2c0 .5.5.7 1 .4.6-.3 1-.8 1-1.1 0-.2-.4-.4-1-.4-.5 0-1 .5-1 1.1zm54.3.4c-.3.9-.3 1.8-.1 2.1.3.3.8-.4 1.1-1.6.6-2.3-.1-2.7-1-.5zm-57.7 1.4c-.3.5.1 1.1.9 1.4.9.4 1.2.1.8-.9-.6-1.6-1-1.7-1.7-.5zm-154.8 2.6c-.4 1.9-.2 2.3.7 1.5.6-.5 1.5-.7 1.8-.3.9.8.9-.1.1-2.1-.9-2.4-2.1-1.9-2.6.9zM565 746a1.08 1.08 0 0 0 1 1c.6 0 1-.5 1-1a.94.94 0 0 0-1-1c-.5 0-1 .4-1 1zm-170.5 1c-.3.6.1.7.9.4 1.8-.7 2.1-1.4.7-1.4-.6 0-1.3.4-1.6 1zm21.8 1.2c.3.9.1 1.9-.6 2.2-.7.2-.5.5.5.5 2.4.1 2.9-1.2 1-2.9-1.4-1.3-1.5-1.2-.9.2zm181.3.6c-.3.5.1.9.9.9s1.5-.4 1.5-.9c0-.4-.4-.8-.9-.8-.6 0-1.2.4-1.5.8zM425.5 750c-.3.5-.1 1 .4 1 .6 0 1.1-.5 1.1-1 0-.6-.2-1-.4-1-.3 0-.8.4-1.1 1zm160.2-.3c-.4.3-.7 1.1-.7 1.7s.5.5 1.2-.2c.6-.6.9-1.4.7-1.7-.3-.3-.9-.2-1.2.2zm-118.4 1c.9.2 2.3.2 3 0 .6-.3-.1-.5-1.8-.5-1.6 0-2.2.2-1.2.5zm104.3.7c-1.9.9-2.4 1.5-1.5 1.8 2.2.7 4.9-.3 4.9-1.8 0-.8-.1-1.4-.2-1.3-.2 0-1.6.6-3.2 1.3zm-12.6 2.2c-1.7 1-2 1.4-.8 1.4 2.3 0 4.8-1.1 4.8-2.1 0-1.2-.9-1-4 .7zm-10.4.1c-.4.4-1.3.8-1.9.9-.7 0-2.1.2-3.2.3-1.8.1-1.8.3-.3 1.1 1.9 1.1 6.8-.3 6.8-2 0-1.2-.4-1.3-1.4-.3zm5.2 1c.7.3 1.6.2 1.9-.1.4-.3-.2-.6-1.3-.5-1.1 0-1.4.3-.6.6zm-91.8 1.1c0 .5.7.9 1.5.9s1.5-.4 1.5-.9c0-.4-.7-.8-1.5-.8s-1.5.4-1.5.8zm65.6.2c-1.4.4-1.6.9-.8 1.4.7.4 1.2.4 1.2 0 0-.3.6-.1 1.4.5 1 .9 1.5.8 1.9-.3.7-1.8-1.1-2.6-3.7-1.6zm-54.1 1.7c-.9 2.4-.6 3.1 1.2 2.9 1.9-.3 2.6-4.3.7-4.3-.7 0-1.6.7-1.9 1.4zm37.5-.7c-.8.5-1 1-.5 1 .6 0 1.7-.5 2.5-1s1.1-1 .5-1c-.5 0-1.7.5-2.5 1zm-31.2 4.7c.7.3 1.6.2 1.9-.1.4-.3-.2-.6-1.3-.5-1.1 0-1.4.3-.6.6zM224 531c0 .5.5 1 1.1 1 .5 0 .7-.5.4-1-.3-.6-.8-1-1.1-1-.2 0-.4.4-.4 1z" fill="#edd6bf"/></svg><svg width="1000" height="1000"><path d="M464.8 209.3c-11.1 4.2-17 9.9-28.9 27.9-4.4 6.8-8.4 12.4-8.8 12.6-.4.1-1.3-1.5-2-3.5-6-16.5-23.2-28.6-35.7-25.1-10.9 2.9-18 9.2-27.9 24.3-3.9 6-9.5 13.9-12.4 17.5-8.8 11.1-28.6 30.4-52.6 51.5-23.7 20.8-44.9 41.7-54.6 54-36.5 45.8-54.9 100-54.9 161.1 0 30.6 3.3 52.6 11.6 77.4 18.5 55.6 55.5 98.3 112.2 129.4 39.2 21.6 88.6 36 139.7 40.8 18.2 1.7 72.7 1.7 91 0 103.6-9.6 179.2-38.3 231.3-87.7 13.6-12.8 29.8-34.9 38.7-52.6 28.3-56.1 32-124.1 10.4-187.8-5-14.7-18.8-42.7-27.2-55.3-23.6-35.2-39.2-50.5-79.2-77.3-25.8-17.3-30.2-21-54.7-46-24.9-25.3-33.6-32.5-47.4-39.4-12.2-6.1-18.3-7.6-30.4-7.5-8.9.1-11.6.5-17.5 2.8-13 5-21.8 12.4-27 22.5-1.4 2.8-2.7 5.1-3 5.1-.2 0-3.7-4.6-7.6-10.3-10.7-15.1-21.5-25.4-32.3-30.8-8.1-4-9.4-4.3-17.9-4.6-6-.2-10.5.1-12.9 1zm22.6 12.9c10.8 3.9 17.9 10.7 34.4 33 12.3 16.4 20.8 24.4 32 30 7 3.5 9.4 4.2 16 4.6 8.2.5 9.2 0 10.6-4.4 1.2-4.1-2.2-6.6-10-7.3-7.7-.7-15.9-4.6-22.8-10.6l-3.9-3.4 3.7-7.3c6.2-12.3 16.6-19.8 29.9-21.7 10.3-1.4 18.4.1 30.2 5.8 15.2 7.3 22 13 46.5 39 17.5 18.6 30.8 29.9 50.3 42.8 39.2 25.8 53.1 38.5 73.5 67 32.7 45.7 47.5 94.5 45.9 151.3-.8 29-5.6 51.1-16.8 77.5-15.1 35.8-36.5 61.6-71.4 86-14.7 10.3-26.8 17-46 25.5-19.8 8.9-34.1 13.8-56 19.5-26.5 6.9-49.4 11-88 15.7-17.5 2.1-81.9 1.8-101-.5-31.1-3.8-67.6-12.4-90.5-21.4-47.2-18.7-84.5-44.2-108.7-74.3-30.9-38.5-46.5-84.1-46.5-135.5 0-57.1 14.1-105 42.3-144.1 15.6-21.6 32.9-39.4 68.9-71.2 31.9-28.1 46.9-44.3 60.7-65.5 3.5-5.4 8.3-11.8 10.8-14.1 12.6-12.3 27-5.3 34.9 16.8l2.6 7.4-6.8 10.4c-17.6 26.5-17.7 26.8-16.1 29.7 2 3.6 6.7 4 9.5.9 1.2-1.3 9.9-14.2 19.4-28.8 30.6-46.9 32.1-48.9 39.2-52.6 6.8-3.6 13.3-3.7 23.2-.2zm106.5 192.1c-8.1 2.8-16.5 9-21.8 16-5.5 7.3-6.5 10.2-4.5 13.2 2.4 3.6 6.6 3.3 9.6-.6 9-11.8 14.5-16.1 23.8-18.5 13.5-3.4 27.8 3.2 36.2 16.9 1.7 2.6 3.7 5.1 4.6 5.6 2.4 1.3 6-.4 7.4-3.5 1-2.2.9-3.2-1.2-7.2-4.1-7.7-12.8-15.7-21.6-19.9-6.9-3.3-8.9-3.8-16.9-4-7.4-.3-10.2 0-15.6 2zm-191 16.2c-12.4 3.4-24 12.9-29.7 24.3-3.5 7.1-3.1 10 1.6 12.2 2.4 1.1 2.9.9 5.2-1.8 1.4-1.6 4-5.5 5.9-8.7 3.7-6.3 12.1-12.6 19.5-14.6 5.6-1.5 15.2-.6 21.2 2 5.2 2.3 12.3 8.6 15.5 13.8 2.5 4 5.3 4.9 8.4 2.9 5.3-3.5 3.9-8.2-5.4-17.5-11.5-11.5-28.2-16.5-42.2-12.6zm148.9 25.2c-.8 1-2.1 3.3-2.8 5.1s-2.4 4.2-3.8 5.2c-4.5 3.6-14.2 2.2-20.7-3-2.1-1.7-4.2-3-4.7-3-.6 0-2.2 1.4-3.6 3.2-5.4 6.3-7 7.7-10.9 8.7-5.8 1.6-11-.2-15.9-5.5-4.5-4.8-8-5.6-10.7-2.6-2.5 2.7-2.1 5.3 1.3 9.9 4.4 6 13.4 10.3 21.4 10.3 6.5 0 13.4-2.5 17.3-6.2 2.2-2.1 2.3-2.1 8-.2 12.6 4 24.7 1.2 30.6-7.2 3.7-5.3 4.6-11.7 2.2-14.4-2.2-2.5-5.7-2.6-7.7-.3zm116.5 76.5c-6.8 7.2-40.4 48-43.8 53.3-7.1 11.3-8.3 19.5-3.9 28.3 4.7 9.4 14.5 15.2 26.1 15.4 7.9.2 14.5-1.7 25.4-7.4 8.3-4.2 11.9-7.1 11.9-9.4 0-2.5-3.1-6.4-5.1-6.4-1 0-6 2.2-11.1 4.9-15.9 8.5-26.5 9-34.3 1.6-4.4-4.1-5.2-7.4-3.1-13 2.5-6.4 5-9.8 27.6-37l21.7-26.8c.8-1.6.8-2.7.1-4.2-2.6-4.9-6.3-4.6-11.5.7zm-295.9 16.3c-1.3 2-1.4 3.1-.6 4.8.5 1.2 7.4 9.8 15.2 19.2 32.6 39.2 35 42.7 35 50.5 0 5.7-4.9 10.4-12.5 12.1-7.2 1.6-11.4.6-25.3-6.1-5.7-2.8-10.8-5-11.3-5-1.8 0-4.9 4.1-4.9 6.4 0 3 3.7 6 13.5 10.9 14.1 7 21.7 8.1 33.1 4.6 5.7-1.7 7.8-3 12.1-7.4 7.5-7.7 9.2-15.6 5.4-25.5-2.6-6.8-6.1-11.5-30.8-41.3-19-22.7-21.8-25.7-24.4-25.7-2 0-3.4.8-4.5 2.5z" fill="#c9ab8b"/></svg><svg width="1000" height="1000"><path d="M466.5 209.4c-11.8 3.7-19.2 10.6-31 29-4.4 6.9-8.2 12.5-8.5 12.5-.3.1-1.3-2.1-2.3-4.9-2.6-7.4-10.2-16.6-17.1-20.9-5.3-3.2-6.6-3.6-13-3.6-13.3 0-20.3 5.3-33.9 25.7-14.4 21.7-28.3 36.5-59.2 63.3-40.5 35.2-55.3 50.8-72.4 76.3-23.6 35.4-36.2 71.1-40.6 116.2-4.9 49 2.8 94.1 22.5 133 19.3 37.9 43.1 64 80.5 88.6 72.2 47.4 172.7 64.2 286.3 47.9 50.1-7.2 92.8-19.8 129.4-38.1 19.2-9.6 26.6-14.2 42.8-26.2 47.4-35.4 74.5-82.4 83.6-145.2 2.1-14.5 1.5-52.9-1-69-8.3-52.4-32.5-101.1-68.9-138.6-12.7-13.2-24.9-22.9-48.7-38.9-25.6-17.2-31.4-22-53.4-44.9-28-29.1-40-38.1-59.4-44.9-19.8-6.9-41.5-2.2-55.7 12-3 3-6.4 7.6-7.6 10.3-1.2 2.8-2.7 5-3.3 5s-4.4-4.8-8.5-10.6c-12.7-18-24.5-28.3-38-33-7.4-2.6-16.2-3-22.6-1zm19.2 11.7c12.9 4.8 18.9 10.3 34.9 31.9 11.1 15 18 22.3 26.8 28.2 7.9 5.4 15.6 8.1 23.9 8.2 7.4.1 8.7-.7 8.7-5.6 0-3.4-1.8-4.4-9.7-5.1-7.3-.6-16.2-4.9-23.2-11.3-4.3-4-4.5-4.3-3-6 1-1.1 2.7-4 3.9-6.6 7.3-15.8 28.2-24.3 47.3-19.3 6.7 1.7 17.7 7.1 26.2 12.8 3.4 2.2 16.8 14.9 30.5 28.8 27.3 27.6 34.3 33.5 57.3 48.5 8.7 5.8 19.5 13.2 24 16.6 38.3 29.2 71.5 80.6 83.6 129.8 12 48.5 10.1 94.7-5.6 137-15.7 42.4-39.8 72-80.8 99.4-28.4 19-61.7 32.9-104 43.4-44.9 11.2-95.9 17-141 15.9-77.6-1.8-138.8-19.8-194.5-57-25.7-17.2-44.7-36.4-59.8-60.6-21.8-35.1-31.8-68.7-32.9-110.8-1.7-64 14.5-115.5 51-161.7 10.1-12.8 33.5-36.1 54.7-54.5 34.7-30.2 53.6-50.4 67.4-72.1 13.4-21.1 24.8-24.5 36.9-11 3.7 4.1 10.7 18.5 10.7 22.1 0 .5-5.1 8.9-11.3 18.7l-12 18.8c-1.1 1.9 3.2 6.4 5.9 6.4 2.5 0 11.1-12.4 43.7-62.7 3.6-5.6 8.5-12.3 10.8-14.8 8.6-9.3 18.1-11.6 29.6-7.4zm111.4 192.5c-10.9 2.9-21 10.4-27.1 20.1-3.4 5.4-3.8 8.3-1.2 10.6 3.4 3.1 5.8 2.1 10.4-4.5 10.9-15.6 26.6-20.6 42.4-13.4 6.9 3.1 11.9 7.7 16.1 15.1 3.2 5.5 6.2 6.8 9.4 3.9 2.7-2.4 2.4-6-1.1-11.5-11-17-30.7-25.2-48.9-20.3zM408 429.7c-11.6 2-23.7 9.2-29.6 17.5-7.7 10.7-8.9 16.7-3.9 19 3.5 1.6 5 .6 8.5-6.1 6.3-11.7 17.8-19.3 29.4-19.4s21.1 4.8 28.7 14.8c4.5 5.9 7.3 7 10.2 3.7 2.4-2.7 2.1-5.4-1.1-9.8-6.1-8.4-16.7-15.9-25.7-18.2-5.2-1.4-13.3-2.1-16.5-1.5zm145.2 25c-.8.3-2.2 2.4-3.2 4.8-2.7 6.3-5.5 8.5-10.9 8.5-6.5 0-11.4-1.6-14.1-4.5-3.5-3.7-5.8-3.1-11.4 2.9-3.8 4.1-6.1 5.6-8.9 6.2-5.8 1-11.1-1-16.1-6.3-3.7-3.9-4.8-4.5-7-3.9-1.5.4-3.2 1.8-3.8 3.2-1 2.1-.7 3 1.8 6.6 9.2 13.1 27.4 15.5 38.5 5.1 2.6-2.4 2.6-2.4 8.7-.4 14.6 4.9 26.7 1 32.1-10.4 2.7-5.7 2.6-7.6-.2-10.3-2.4-2.2-3.2-2.5-5.5-1.5zm108.6 85.5c-35.4 42-39.9 48-42.4 56.5-2.6 9.1-.6 16.8 6.3 23.7 10.4 10.4 26.2 11.2 43.7 2.4 10.5-5.3 13.6-7.8 13.6-10.8 0-1.5-.9-3.5-2-4.5-2-1.8-2.3-1.7-13.3 3.9-9 4.6-12.4 5.9-17.4 6.3-7.8.7-14-1.4-18.3-6.3-6.5-7.5-3.2-14.6 19.6-41.9 23.7-28.4 28.4-34.4 28.4-36.5s-3.6-5-6.2-5c-.9 0-6.2 5.4-12 12.2zm-288.7 8.4c-2.1 2.6-2.1 2.7-.2 5.6 1 1.7 10.1 13 20.2 25.1 22.2 26.7 24 29.1 26.6 34.2 4.6 8.9 3.7 13.8-3.4 19.2-3.3 2.5-4.4 2.8-11.7 2.8-7.8 0-8.5-.2-19.9-5.7-11.8-5.7-11.8-5.7-14.3-3.3-1.3 1.3-2.4 3.1-2.4 3.9 0 3.1 7.6 8.3 19.4 13.3 8.7 3.6 15.2 4.4 22.9 2.8 8-1.7 11.6-3.5 16.2-8 5.1-5.2 6.8-9 6.8-16 0-10.2-3.5-15.8-26.9-44.1-29.4-35.5-29.1-35.2-33.3-29.8z" fill="#bb8456"/></svg></svg>